<svg id="Layer_1" data-name="Layer 1" xmlns="http://www.w3.org/2000/svg" viewBox="0 0 300 300"><title>GOOG_Mark_Light</title><path d="M268.89884,152.81484a142.30961,142.30961,0,0,0-2.25188-25.33356H150v47.96488h66.65541a57.11051,57.11051,0,0,1-24.88318,37.26847v31.18844h40.19592C255.38762,222.28509,268.89886,190.5337,268.89884,152.81484Z" fill="#4285f4"/><path d="M150,273.853c33.4403,0,61.4761-11.03417,81.96815-29.94989l-40.19591-31.18844C180.73807,220.14581,166.66387,224.64955,150,224.64955c-32.20177,0-59.562-21.73057-69.35766-51.00491H39.43308v31.97658A123.73721,123.73721,0,0,0,150,273.853Z" fill="#34a853"/><path d="M80.64234,173.53206a72.23049,72.23049,0,0,1,0-47.06412V94.49136H39.43308a122.59968,122.59968,0,0,0,0,111.01729l32.08918-24.99578Z" fill="#fbbc05"/><path d="M150,75.463c18.24016,0,34.45364,6.30524,47.4019,18.46535l35.467-35.467C211.36352,38.41974,183.4403,26.147,150,26.147A123.634,123.634,0,0,0,39.43308,94.49136l41.20926,31.97658C90.438,97.1936,117.79823,75.463,150,75.463Z" fill="#ea4335"/><path d="M26.147,26.147H273.853V273.853H26.147Z" fill="none"/></svg>