<?xml version="1.0" encoding="utf-8"?>
<!-- Generator: Adobe Illustrator 24.0.1, SVG Export Plug-In . SVG Version: 6.00 Build 0)  -->
<svg version="1.1" id="Layer_1" xmlns="http://www.w3.org/2000/svg" xmlns:xlink="http://www.w3.org/1999/xlink" x="0px" y="0px"
	 viewBox="0 0 300 300" style="enable-background:new 0 0 300 300;" xml:space="preserve">
<style type="text/css">
	.st0{fill:#FF9900;}
	.st1{fill-rule:evenodd;clip-rule:evenodd;}
</style>
<title>Artboard 40</title>
<g>
	<path class="st0" d="M227.2,218.2c-87.1,41.5-141.2,6.8-175.8-14.3c-2.1-1.3-5.8,0.3-2.6,3.9c11.5,14,49.3,47.7,98.6,47.7
		c49.3,0,78.7-26.9,82.4-31.6C233.5,219.2,230.9,216.7,227.2,218.2L227.2,218.2z M251.7,204.7c-2.3-3-14.2-3.6-21.7-2.7
		c-7.5,0.9-18.7,5.5-17.8,8.2c0.5,1,1.5,0.6,6.7,0.1c5.2-0.5,19.6-2.3,22.6,1.6c3,4-4.6,22.9-6,25.9c-1.3,3,0.5,3.8,3,1.8
		c2.5-2,7-7.3,10-14.7C251.6,217.4,253.5,207,251.7,204.7L251.7,204.7z"/>
	<path class="st1" d="M168.7,133.6c0,10.9,0.3,19.9-5.2,29.6c-4.4,7.9-11.5,12.7-19.3,12.7c-10.7,0-17-8.2-17-20.2
		c0-23.8,21.3-28.1,41.5-28.1V133.6z M196.8,201.7c-1.8,1.6-4.5,1.8-6.6,0.7c-9.3-7.7-10.9-11.3-16-18.6
		c-15.3,15.6-26.2,20.3-46,20.3c-23.5,0-41.8-14.5-41.8-43.5c0-22.7,12.3-38.1,29.8-45.6c15.2-6.7,36.3-7.9,52.5-9.7v-3.6
		c0-6.6,0.5-14.5-3.4-20.2c-3.4-5.1-9.9-7.3-15.7-7.3c-10.6,0-20.1,5.5-22.5,16.8c-0.5,2.5-2.3,5-4.8,5.1l-27.1-2.9
		c-2.3-0.5-4.8-2.4-4.2-5.9c6.2-32.8,35.9-42.7,62.4-42.7c13.6,0,31.3,3.6,42.1,13.9c13.6,12.7,12.3,29.6,12.3,48v43.5
		c0,13.1,5.4,18.8,10.5,25.9c1.8,2.5,2.2,5.5-0.1,7.4C212.6,188,202.5,196.8,196.8,201.7L196.8,201.7"/>
	<path class="st0" d="M227.2,218.2c-87.1,41.5-141.2,6.8-175.8-14.3c-2.1-1.3-5.8,0.3-2.6,3.9c11.5,14,49.3,47.7,98.6,47.7
		c49.3,0,78.7-26.9,82.4-31.6C233.5,219.2,230.9,216.7,227.2,218.2L227.2,218.2z M251.7,204.7c-2.3-3-14.2-3.6-21.7-2.7
		c-7.5,0.9-18.7,5.5-17.8,8.2c0.5,1,1.5,0.6,6.7,0.1c5.2-0.5,19.6-2.3,22.6,1.6c3,4-4.6,22.9-6,25.9c-1.3,3,0.5,3.8,3,1.8
		c2.5-2,7-7.3,10-14.7C251.6,217.4,253.5,207,251.7,204.7L251.7,204.7z"/>
	<path class="st1" d="M168.7,133.6c0,10.9,0.3,19.9-5.2,29.6c-4.4,7.9-11.5,12.7-19.3,12.7c-10.7,0-17-8.2-17-20.2
		c0-23.8,21.3-28.1,41.5-28.1V133.6z M196.8,201.7c-1.8,1.6-4.5,1.8-6.6,0.7c-9.3-7.7-10.9-11.3-16-18.6
		c-15.3,15.6-26.2,20.3-46,20.3c-23.5,0-41.8-14.5-41.8-43.5c0-22.7,12.3-38.1,29.8-45.6c15.2-6.7,36.3-7.9,52.5-9.7v-3.6
		c0-6.6,0.5-14.5-3.4-20.2c-3.4-5.1-9.9-7.3-15.7-7.3c-10.6,0-20.1,5.5-22.5,16.8c-0.5,2.5-2.3,5-4.8,5.1l-27.1-2.9
		c-2.3-0.5-4.8-2.4-4.2-5.9c6.2-32.8,35.9-42.7,62.4-42.7c13.6,0,31.3,3.6,42.1,13.9c13.6,12.7,12.3,29.6,12.3,48v43.5
		c0,13.1,5.4,18.8,10.5,25.9c1.8,2.5,2.2,5.5-0.1,7.4C212.6,188,202.5,196.8,196.8,201.7L196.8,201.7"/>
</g>
</svg>
