<svg id="Layer_1" data-name="Layer 1" xmlns="http://www.w3.org/2000/svg" viewBox="0 0 300 300"><g id="apple"><path d="M114.79,273a43.3,43.3,0,0,0,10.11-1.82c1.65-.5,4.47-1.66,8.78-3.48a71.51,71.51,0,0,1,9.28-3.31,48.19,48.19,0,0,1,23.86,0,78,78,0,0,1,9.28,3.48c3.81,1.65,6.79,2.65,8.78,3.31a33,33,0,0,0,10.6,1.33,27.12,27.12,0,0,0,14.92-4.48,57.55,57.55,0,0,0,12.09-11.27c2.65-3.14,6.13-8,10.61-14.41a147.25,147.25,0,0,0,12.76-23.7c1.32-3.15,2.81-7,4.14-11.26a41.1,41.1,0,0,1-8.62-4.64A54.91,54.91,0,0,1,225.64,187c-5.63-8.45-8.45-18.22-8.61-29.32a52.23,52.23,0,0,1,6.62-25.85,61.15,61.15,0,0,1,12.6-15.41,48.79,48.79,0,0,1,7.45-5.64,53.52,53.52,0,0,0-25.18-20,67.39,67.39,0,0,0-19.89-4.31,47.21,47.21,0,0,0-11.76.5A78.24,78.24,0,0,0,176.1,89.6c-2.49,1-5.64,2.16-9.61,3.65-4,1.65-6.8,2.65-8.29,3.15a24.66,24.66,0,0,1-6.63,1.32,25.93,25.93,0,0,1-8.28-1.66c-1-.33-4.14-1.65-9.78-3.81-4.31-1.65-7.95-3-10.93-3.81A49.81,49.81,0,0,0,111,87a55.93,55.93,0,0,0-29.17,8.62,59.5,59.5,0,0,0-21.54,22.37C53.48,129.7,50,143.79,50,159.86a140.16,140.16,0,0,0,7.62,44.57,144.64,144.64,0,0,0,18.23,37.29,160.59,160.59,0,0,0,10.94,14.91,54.5,54.5,0,0,0,12.75,11.76A27.82,27.82,0,0,0,114.79,273Z"/><path d="M186,66.24a59.37,59.37,0,0,0,10.27-18.06A47.23,47.23,0,0,0,198.8,27a48.26,48.26,0,0,0-19.39,5.63,55,55,0,0,0-16.73,12.93A58.56,58.56,0,0,0,152.4,62.76c-2.81,7.46-3.81,14.25-2.81,20.88,6.62.49,13.25-1,20.21-4.48A49.14,49.14,0,0,0,186,66.24Z"/></g></svg>