<svg id="Layer_1" data-name="Layer 1" xmlns="http://www.w3.org/2000/svg" viewBox="0 0 300 300"><defs><style>.cls-1{fill:#e31837;}.cls-2{fill:#012169;}</style></defs><title>BAC_Logo_Light</title><path class="cls-1" d="M172.44,216.76a5.9,5.9,0,0,1,6.25-5.88,6.13,6.13,0,0,1,6.26,5.88,5.91,5.91,0,0,1-6.26,5.89c-3.68.37-6.25-2.21-6.25-5.89m1.1,0a5,5,0,0,0,5.15,4.79,4.79,4.79,0,0,0,0-9.57c-2.94.37-5.15,2.21-5.15,4.78"/><path class="cls-1" d="M181.63,220.44h-1.1l-1.84-2.94h-1.1v2.94h-1.1v-6.62h2.94a3.32,3.32,0,0,1,1.84.37,1.91,1.91,0,0,1,.73,1.47c0,1.47-1.1,1.84-2.2,1.84Zm-3.31-4c1.11,0,2.21,0,2.21-1.11,0-.73-.73-1.1-1.84-1.1h-1.84V216l1.47.37Z"/><path class="cls-1" d="M149.63,223C192.3,186.6,252.26,150.92,285,138.41c-5.15-3.31-12.87-8.09-22.07-12.87-42.3,14-92,45.24-136.1,80.19C134.18,210.88,142.28,216.76,149.63,223Z"/><path class="cls-2" d="M129.77,123.7c-6.26-2.94-13.24-5.89-18.39-8.46-16.19,8.09-36.79,19.86-63.27,38.62,5.88,2.95,11.77,6.62,18.39,10.3C86.73,149.45,107.33,135.1,129.77,123.7Z"/><path class="cls-1" d="M168,106c-7.72-4.41-34.57-14-53-18.39-5.51,2.21-13.24,5.15-18.39,7.36,6.62,1.84,31.64,8.46,53,19.12C155.15,111.56,162.51,108.25,168,106Z"/><path class="cls-2" d="M77.17,103.47C53.26,114.5,28.61,129.58,15,138c4.78,2.21,9.56,4.05,16.55,7.36,30.17-20.23,53.34-32.74,62.91-36.78C87.47,106.41,81.21,104.57,77.17,103.47Z"/><path class="cls-1" d="M185.68,100.16C191.2,98.32,197.45,96.48,203,95a395.71,395.71,0,0,0-53.34-18c-2.94.74-11.4,3-17.29,4.78A307.11,307.11,0,0,1,185.68,100.16Z"/><path class="cls-1" d="M85.63,176.3c6.25,4,13.61,9.2,20.23,13.61,44.51-34.58,88.28-61.06,136.47-76.14l-19.86-9.93C193.41,110.82,144.11,130.69,85.63,176.3Z"/></svg>