<svg id="Layer_1" data-name="Layer 1" xmlns="http://www.w3.org/2000/svg" viewBox="0 0 300 300"><path d="M27.68452,150.85365a17.27,17.27,0,0,0-4.24473-1.70237,6.43991,6.43991,0,0,0,3.84154-1.92637,3.10235,3.10235,0,0,0,1.12-2.55356,4.28951,4.28951,0,0,0-.85119-2.77755,4.37906,4.37906,0,0,0-2.41916-1.96,14.96264,14.96264,0,0,0-5.11832-.6384H10v.4256a4.088,4.088,0,0,1,1.91517.43679q.63838.31359.63839.6384a3.89751,3.89751,0,0,1,.42559,2.11676v13.64138a4.9839,4.9839,0,0,1-.42559,2.352q0,.31359-.63839.6384A4.72663,4.72663,0,0,1,10,159.75753v.6384H20.651c2.97916,0,5.33112-.6384,6.8207-1.91518a4.98391,4.98391,0,0,0,1.904-3.98715A4.92793,4.92793,0,0,0,27.68452,150.85365ZM17.66068,140.41541a6.93263,6.93263,0,0,1,3.41594.6384,2.23992,2.23992,0,0,1,1.48958,1.26558,3.83029,3.83029,0,0,1,.63839,2.352,3.1807,3.1807,0,0,1-.63839,2.128,4.97241,4.97241,0,0,1-1.48958,1.48958,7.66049,7.66049,0,0,1-3.41594.43679Zm5.54391,16.62053a5.7341,5.7341,0,0,1-1.48958,1.70238,9.04894,9.04894,0,0,1-2.352.4256,1.56794,1.56794,0,0,1-1.27678-.4256,1.80319,1.80319,0,0,1-.42559-1.27678v-7.44787a13.98825,13.98825,0,0,1,3.62874.4256,3.752,3.752,0,0,1,1.91517,1.70237,5.71177,5.71177,0,0,1,.63839,2.56476,4.31189,4.31189,0,0,1-.63839,2.32956Z" fill="#2f3187" fill-rule="evenodd"/><path d="M37.574,148.99448a5.60018,5.60018,0,0,1,1.848.13439,2.54235,2.54235,0,0,1,1.344.85118,3.22554,3.22554,0,0,1,.73918,1.848h.3696v-3.57275h-10.203v.2464h.49279a1.12,1.12,0,0,1,.85118.36959c.1344,0,.2464.2464.3696.3696v9.10546c0,.616,0,.98559-.1232,1.12s-.1232.3696-.3696.4928a1.56254,1.56254,0,0,1-.73919.1232h-.49279v.36959H42.12109l.616-3.93113h-.36959a3.84152,3.84152,0,0,1-1.47838,2.464,4.41272,4.41272,0,0,1-2.69915.73919h-.73919c-.3696,0-.616,0-.73919-.1232s-.2464-.24639-.2464-.36959a7.2027,7.2027,0,0,1-.1232-1.232V154.4936a3.808,3.808,0,0,1,1.35518.24639,2.67672,2.67672,0,0,1,.73919.8624,7.06653,7.06653,0,0,1,.49279,1.72476h.35839v-6.1935h-.35839A4.65908,4.65908,0,0,1,38.19,153.228a1.69116,1.69116,0,0,1-1.60157.73919H36.342v-4.92791Z" fill="#2f3187" fill-rule="evenodd"/><path d="M56.15447,159.70151a4.47983,4.47983,0,0,1-.86238-.86239l-2.83356-4.17753a3.70724,3.70724,0,0,0,1.71357-.86239,2.66556,2.66556,0,0,0,.98559-2.24,2.56478,2.56478,0,0,0-.728-1.85917,3.18075,3.18075,0,0,0-1.60158-1.22078,19.74624,19.74624,0,0,0-3.20315-.2464h-5.6559v.2464a2.47519,2.47519,0,0,1,1.12.2352c.2464.1232.36959.2576.36959.38079a2.7102,2.7102,0,0,1,.1232,1.22078v8.00787a3.02387,3.02387,0,0,1-.1232,1.22077c0,.1232-.12319.2464-.36959.38079a2.73288,2.73288,0,0,1-1.12.1232v.35841H50.129v-.31358a2.8,2.8,0,0,1-1.12-.1232c-.2352-.13439-.3584-.25759-.3584-.38079a2.56469,2.56469,0,0,1-.25759-1.22078V154.9192h.87358l3.93114,5.53271h3.84154v-.3584A1.12,1.12,0,0,1,56.15447,159.70151Zm-4.31193-6.5295a3.20314,3.20314,0,0,1-.98559.87358,7.45938,7.45938,0,0,1-1.848.2464h-.616v-5.3983h.99679a2.56469,2.56469,0,0,1,2.08316.73919,2.45276,2.45276,0,0,1,.73919,1.97116,2.71032,2.71032,0,0,1-.36959,1.568Z" fill="#2f3187" fill-rule="evenodd"/><path d="M68.08228,150.10327c.86239-.73919,1.35518-1.232,1.59038-1.35519s.616-.1232.98558-.2464v-.24639H65.99912v.24639a4.71528,4.71528,0,0,1,.98558.2464c.24639.1232.36959.2464.36959.4928s-.36959.73919-.98558,1.232l-4.47993,3.696v-5.03992l.3696-.3696a2.31821,2.31821,0,0,1,.98558-.24639v-.2576h-5.9919v.2464h.36959a1.91529,1.91529,0,0,1,.86239.2464c.12319.1232.36959.2464.36959.3696a3.09113,3.09113,0,0,1,.1232,1.232v7.99668c0,.616,0,.98559-.1232,1.12a1.70238,1.70238,0,0,1-.36959.49279,1.82564,1.82564,0,0,1-.86239.1232h-.36959v.3696h6.1487v-.35842c-.4928,0-.86239,0-.98558-.1232a1.70245,1.70245,0,0,1-.4928-.3696v-4.54712l.3696-.3696,2.83355,3.44955a5.06208,5.06208,0,0,1,.86238,1.46717c0,.1232-.1232.2464-.24639.3696a4.35668,4.35668,0,0,1-.7392.1232v.36959h6.2719v-.36959a2.90089,2.90089,0,0,1-.98558-.2464,4.67032,4.67032,0,0,1-1.60157-1.59037l-4.17754-5.29751,3.57274-2.83356Z" fill="#2f3187" fill-rule="evenodd"/><path d="M79.5173,148.00891a1.32163,1.32163,0,0,1-.36959.616c0,.1232-.1232.1232-.3696.1232a1.22068,1.22068,0,0,1-.73919-.2464c-.4928-.1232-.7392-.2464-1.12-.3584a3.136,3.136,0,0,0-1.12-.13439,4.05432,4.05432,0,0,0-2.71035.98559,3.1583,3.1583,0,0,0-.98558,2.464,3.35989,3.35989,0,0,0,.36959,1.60157,3.49453,3.49453,0,0,0,1.12,1.232,11.78219,11.78219,0,0,0,2.36317,1.32157c.85119.49279,1.344.73919,1.71357.98559a3.04637,3.04637,0,0,1,.616.73919,2.979,2.979,0,0,1,.2464.85118,1.71359,1.71359,0,0,1-.616,1.232,2.12794,2.12794,0,0,1-1.60158.616,4.18871,4.18871,0,0,1-2.47516-.952A5.59989,5.59989,0,0,1,72.36062,156.14h-.2464v4.54713h.2464a2.68731,2.68731,0,0,1,.35839-.59359,1.12006,1.12006,0,0,1,.616-.1232,1.34389,1.34389,0,0,1,.616.1232,9.36359,9.36359,0,0,0,1.35517.49279,2.73291,2.73291,0,0,0,1.12.1232,4.18874,4.18874,0,0,0,2.94555-1.12,3.67356,3.67356,0,0,0,1.232-2.576,3.43846,3.43846,0,0,0-.7392-2.24,11.99535,11.99535,0,0,0-2.94555-1.97116c-.98558-.4928-1.60157-.86239-1.848-.98559a1.904,1.904,0,0,1-.86238-.86239,1.3216,1.3216,0,0,1-.2464-.73919,2.24,2.24,0,0,1,.4928-1.12,2.64311,2.64311,0,0,1,1.47837-.49279,3.03511,3.03511,0,0,1,2.24.97438,4.05429,4.05429,0,0,1,1.35517,2.464h.3696l-.1232-4.06555Z" fill="#2f3187" fill-rule="evenodd"/><path d="M90.63873,154.4936v4.91672a1.70241,1.70241,0,0,1-.3696.49279,1.8256,1.8256,0,0,1-.86238.1232h-.3696v.3696h6.2719v-.3024h-.3696a1.82561,1.82561,0,0,1-.86238-.1232,1.70224,1.70224,0,0,1-.36959-.4928c-.1232-.12319-.1232-.49279-.1232-1.12v-8.00786c0-.616,0-.98559.1232-1.12a1.7022,1.7022,0,0,1,.36959-.49279,1.78069,1.78069,0,0,1,.86238-.2464h.3696v-.2464h-6.2719v.2464h.3696a1.12,1.12,0,0,1,.73919.2464,1.70238,1.70238,0,0,1,.49279.36959V153.788H86.282v-3.43833a6.80954,6.80954,0,0,1,.12319-1.12,1.70241,1.70241,0,0,1,.3696-.49279,1.78069,1.78069,0,0,1,.86238-.2464h.3696v-.2464h-6.2719v.2464h.3696a1.91529,1.91529,0,0,1,.86238.2464l.35839.36959a3.0912,3.0912,0,0,1,.1232,1.232v7.99668c0,.616,0,.98559-.1232,1.12a1.92643,1.92643,0,0,1-.35839.49279,1.8256,1.8256,0,0,1-.86238.1232h-.3696v.3696h6.2719v-.34721h-.3696c-.36959,0-.616,0-.73919-.1232a.96316.96316,0,0,1-.49279-.4928,6.80823,6.80823,0,0,1-.1232-1.12V154.4936Z" fill="#2f3187" fill-rule="evenodd"/><path d="M101.90575,160.09351a1.82564,1.82564,0,0,1-.86239-.1232,1.70224,1.70224,0,0,1-.36959-.4928,6.80823,6.80823,0,0,1-.1232-1.12v-8.00786a6.80847,6.80847,0,0,1,.1232-1.12,1.7022,1.7022,0,0,1,.36959-.49279,1.7807,1.7807,0,0,1,.86239-.2464h.36959v-.2464h-6.2719v.2464h.3696a1.91525,1.91525,0,0,1,.86238.2464l.3696.36959c0,.2464.1232.616.1232,1.232v7.99668a6.80944,6.80944,0,0,1-.1232,1.12,1.70241,1.70241,0,0,1-.3696.49279,1.82558,1.82558,0,0,1-.86238.1232h-.3696v.3696h6.2719v-.34721Z" fill="#2f3187" fill-rule="evenodd"/><path d="M115.27834,159.70151a5.09694,5.09694,0,0,1-.7392-.86239l-2.95675-4.17753a3.18086,3.18086,0,0,0,1.71357-.86239,2.66553,2.66553,0,0,0,.98558-2.24,3.12462,3.12462,0,0,0-.60479-1.85917,3.52781,3.52781,0,0,0-1.72477-1.22078,17.62813,17.62813,0,0,0-3.20315-.2464h-5.59991v.2464a2.02708,2.02708,0,0,1,1.12.2352,1.63523,1.63523,0,0,1,.504.38079,9.23923,9.23923,0,0,1,.1232,1.22078v8.00787c0,.60478-.1232.98559-.1232,1.22077a1.82523,1.82523,0,0,1-.504.38079c-.112.1232-.48159.1232-1.12.1232v.35841h6.1487v-.31358a2.733,2.733,0,0,1-1.12-.1232c-.1232-.13439-.3584-.25759-.3584-.38079a3.0239,3.0239,0,0,1-.1232-1.22078V154.9192h.728l3.94234,5.53271h3.81914v-.3584A1.12,1.12,0,0,1,115.27834,159.70151Zm-4.32314-6.5295a3.04623,3.04623,0,0,1-.97438.87358,6.00285,6.00285,0,0,1-1.848.2464h-.48159v-5.3983h.90719a3.06872,3.06872,0,0,1,2.24.73919,2.93433,2.93433,0,0,1,.616,1.97116A2.62075,2.62075,0,0,1,111,153.172Z" fill="#2f3187" fill-rule="evenodd"/><path d="M122.323,148.99448a6.51868,6.51868,0,0,1,1.848.13439,2.576,2.576,0,0,1,1.35519.85118,7.03322,7.03322,0,0,1,.73919,1.848h.21278v-3.57275H116.39832v.2464h.3696a1.456,1.456,0,0,1,.98558.36959c.1232,0,.24639.2464.24639.3696a6.83831,6.83831,0,0,1,.1232,1.12v7.99668a6.80835,6.80835,0,0,1-.1232,1.12,1.7022,1.7022,0,0,1-.36959.49279,1.82561,1.82561,0,0,1-.86238.1232h-.3696v.3696H126.859l.616-3.93113h-.36959a5.25276,5.25276,0,0,1-1.47839,2.464,4.6815,4.6815,0,0,1-2.71035.7392h-.7392c-.36959,0-.616,0-.73919-.1232l-.35839-.3696a7.201,7.201,0,0,1-.1232-1.232V154.4936a3.237,3.237,0,0,1,1.344.24639,1.93763,1.93763,0,0,1,.86238.8624,3.9311,3.9311,0,0,1,.36959,1.72476h.3696v-6.1935h-.3696a3.52791,3.52791,0,0,1-.616,2.09436,1.91513,1.91513,0,0,1-1.72477.73919h-.2352v-4.92791Z" fill="#2f3187" fill-rule="evenodd"/><path d="M150.25538,150.21526v6.60789c0,1.064,0,1.70237-.2128,1.91517,0,.4256-.4256.6384-.6384.85118s-.85118.2128-1.48958.2128h-.63839v.64959h11.07662v-.64959h-.85118c-.4256,0-1.064,0-1.27678-.2128a1.65754,1.65754,0,0,1-.85118-.85118V141.05381a2.93425,2.93425,0,0,1,.6384-.85118,3.07987,3.07987,0,0,1,1.48958-.4256h.85118v-.4256H147.27622v.4256h.6384a3.07994,3.07994,0,0,1,1.48958.4256q.6384.3136.6384.6384a5.34245,5.34245,0,0,1,.2128,2.128v5.9247h-7.45909v-5.93591c0-1.064,0-1.70238.2128-1.91518a2.93425,2.93425,0,0,1,.6384-.85118,3.07987,3.07987,0,0,1,1.48958-.4256h.63839v-.4256H134.69886v.4256H135.55a2.24007,2.24007,0,0,1,1.27678.4256,2.93425,2.93425,0,0,1,.85118.6384v17.91971a2.93442,2.93442,0,0,1-.6384.85118,3.15835,3.15835,0,0,1-1.48958.2128h-.85118v.64959h11.07663v-.64959h-.6384a3.15835,3.15835,0,0,1-1.48958-.2128c-.2128-.2128-.6384-.4256-.6384-.85118-.2128-.2128-.2128-.85118-.2128-1.91517v-6.60789Z" fill="#2f3187" fill-rule="evenodd"/><path d="M172.45344,159.70151a3.78545,3.78545,0,0,1-.98559-1.72477l-4.42393-9.96783h-.1232L162.62,157.74156a6.41747,6.41747,0,0,1-1.12,1.83677,1.55675,1.55675,0,0,1-.99678.504v.35841h3.94234v-.34721a1.68,1.68,0,0,1-1.12-.25759.81761.81761,0,0,1-.4928-.728,3.87592,3.87592,0,0,1,.2464-.99679l.616-1.12h4.22233l.75038,1.47838a5.11734,5.11734,0,0,0,.23521.616v.3584c0,.2464,0,.3696-.1232.504a2.03842,2.03842,0,0,1-.97438.1232h-.2464v.3584h5.7679v-.336A1.12,1.12,0,0,1,172.45344,159.70151Zm-8.48947-3.43836,1.848-4.06554,1.848,4.06554Z" fill="#2f3187" fill-rule="evenodd"/><path d="M174.3014,148.25529v3.35994h.2464a3.36,3.36,0,0,1,.98559-2.09436,2.53109,2.53109,0,0,1,1.83677-.49279h.86239v9.35186c0,.616,0,.98559-.1232,1.12a1.70223,1.70223,0,0,1-.3696.49279,1.82564,1.82564,0,0,1-.86239.1232h-.36959v.3696h6.2831v-.392h-.31359c-.2464,0-.616,0-.7392-.1232s-.36959-.2464-.36959-.4928a9.527,9.527,0,0,1-.1232-1.12v-9.35186h.86239a2.82237,2.82237,0,0,1,1.22078.1344,6.08162,6.08162,0,0,1,.98559.728c.12319.36959.36959.98559.616,1.72476h.2464v-3.35994Z" fill="#2f3187" fill-rule="evenodd"/><path d="M195.21147,154.4936v3.80793a6.80944,6.80944,0,0,1-.1232,1.12,1.70259,1.70259,0,0,1-.3696.4928,1.82576,1.82576,0,0,1-.86239.1232h-.36959v.36959h6.2719v-.31359H199.389a1.82564,1.82564,0,0,1-.86239-.1232,1.512,1.512,0,0,1-.35841-.4928,6.27456,6.27456,0,0,1-.13439-1.12v-8.00786a6.27478,6.27478,0,0,1,.13439-1.12,1.512,1.512,0,0,1,.35841-.49279,1.78063,1.78063,0,0,1,.86239-.2464h.36959v-.2464h-6.2719v.2464h.36959a1.91517,1.91517,0,0,1,.86239.2464l.3696.36959c0,.2464.1232.616.1232,1.232V153.788h-4.31194v-4.55834a1.92629,1.92629,0,0,1,.3696-.49279,1.78063,1.78063,0,0,1,.86239-.2464h.4256v-.2464h-6.27191v.2464h.36959a1.91524,1.91524,0,0,1,.8624.2464l.36959.36959a3.09138,3.09138,0,0,1,.1232,1.232v7.99668c0,.616,0,.98559-.1232,1.12a1.70238,1.70238,0,0,1-.36959.49279,1.8257,1.8257,0,0,1-.8624.1232h-.36959v.3696h6.27191v-.34721h-.3696c-.3696,0-.616,0-.73919-.1232a.96325.96325,0,0,1-.4928-.4928V154.4936Z" fill="#2f3187" fill-rule="evenodd"/><path d="M212.30241,159.70151a4.00948,4.00948,0,0,1-.98559-1.72477l-4.42393-9.96783h-.1232l-4.42392,9.73265a12.45454,12.45454,0,0,1-.97438,1.83677,1.624,1.624,0,0,1-1.12.504v.35841H204.317v-.34721a2.48642,2.48642,0,0,1-1.232-.25759.728.728,0,0,1-.3696-.728,4.3,4.3,0,0,1,.23521-.99679l.504-1.12h4.30072l.616,1.47838a6.40365,6.40365,0,0,0,.2464.616.43674.43674,0,0,1,.12319.3584.68317.68317,0,0,1-.24639.504c-.1232.1232-.4928.1232-.98559.1232h-.23521v.3584H213.176v-.336A1.12,1.12,0,0,1,212.30241,159.70151Zm-8.48947-3.43836,1.85918-4.06554,1.72476,4.06554Z" fill="#2f3187" fill-rule="evenodd"/><path d="M228.39655,148.25529v.24639a8.76076,8.76076,0,0,1,.98559.2464.94075.94075,0,0,1,.2464.616c0,.24639-.1232.36959-.1232.616a5.1521,5.1521,0,0,1-.3696,1.12l-1.97116,5.17431-2.24-5.7903a7.97486,7.97486,0,0,1-.36959-1.232.448.448,0,0,1,.1232-.3696c0-.12319.1232-.12319.24639-.2352a6.48425,6.48425,0,0,1,.85119-.13439v-.2464h-5.77912v.2464a1.91491,1.91491,0,0,1,.86239.2464c.1232.12319.3696.24639.4928.49279s.36959.73919.616,1.35519l.4928,1.35518-1.904,4.54713-2.32956-5.91351c-.2464-.73919-.4928-1.232-.4928-1.35518a.63839.63839,0,0,1,.2464-.4928c.1232-.1232.3696-.1232.85118-.2464v-.24639h-5.28632v.24639a7.61834,7.61834,0,0,1,.86239.3696c.1232.2464.3696.86239.8624,1.848l3.93113,9.96784h.36959l3.35995-7.83988,2.94556,7.83988h.28l3.81914-10.07984a5.83522,5.83522,0,0,0,.49279-1.344c.1232-.24639.3696-.36959.4928-.49279s.3696-.1232.616-.2464v-.25759Z" fill="#2f3187" fill-rule="evenodd"/><path d="M243.9307,159.70151a3.68465,3.68465,0,0,1-.98559-1.72477l-4.47993-9.96783h-.1232l-4.34552,9.73263a11.30114,11.30114,0,0,1-.98559,1.83677,1.568,1.568,0,0,1-1.12.504v.3584h4.05433v-.34719a2.44158,2.44158,0,0,1-1.22078-.25759.7392.7392,0,0,1-.38079-.728,3.965,3.965,0,0,1,.25759-.99679l.48159-1.12h4.30073l.62718,1.47838a5.11734,5.11734,0,0,0,.23521.616.4144.4144,0,0,1,.13439.3584.69436.69436,0,0,1-.25759.504c-.112.1232-.48159.1232-.97438.1232h-.2464v.3584h5.90231v-.336A.9072.9072,0,0,1,243.9307,159.70151Zm-8.48947-3.43836,1.83677-4.06554,1.72477,4.06554Z" fill="#2f3187" fill-rule="evenodd"/><path d="M254.38014,148.25529v.24639a6.62031,6.62031,0,0,1,1.12.3696c.1232.1232.2464.2464.2464.3696a9.29575,9.29575,0,0,1-.8624,1.848l-2.24,3.57275-2.24-3.94235a5.11829,5.11829,0,0,1-.7392-1.72476c0-.1232.1232-.1232.2464-.2352a1.04153,1.04153,0,0,1,.73919-.2464h.2464v-.25759h-5.70071v.24639a1.45594,1.45594,0,0,1,.98559.3696,7.13434,7.13434,0,0,1,1.12,1.848l2.94556,5.17432v2.464a6.80944,6.80944,0,0,1-.1232,1.12,2.083,2.083,0,0,1-.3696.49279,1.82564,1.82564,0,0,1-.86239.1232h-.60478v.3696h6.71989v-.36958h-.616a1.82564,1.82564,0,0,1-.86239-.1232,1.87066,1.87066,0,0,1-.3696-.4928,6.80932,6.80932,0,0,1-.1232-1.12v-2.95675l2.71036-4.47993a11.40143,11.40143,0,0,1,1.344-2.08317,8.49012,8.49012,0,0,1,.98559-.36959v-.25759Z" fill="#2f3187" fill-rule="evenodd"/><path d="M268.37991,160.2615a1.12,1.12,0,0,1-.504-.07841c-.17921-.0896-.2576-.1792-.2576-.34719a6.11112,6.11112,0,0,1-.0896-.76158v-5.53271c0-.4256,0-.68319.0896-.7728s.07841-.24639.2576-.336a.85121.85121,0,0,1,.504-.168h.336v-.168H264.292v.15679h.34719a.85133.85133,0,0,1,.504.168c.168.0896.25759.168.25759.25759a2.02746,2.02746,0,0,1,.0896.85118v5.53272c0,.4256,0,.68319-.0896.76158s-.0896.25759-.25759.34719a.99569.99569,0,0,1-.504.07841H264.292v.25759h4.42392v-.25759Z" fill="#2f3187" fill-rule="evenodd"/><path d="M269.2311,152.08564v.168c.2576.07841.42559.07841.51518.168a2.12781,2.12781,0,0,1,.504.4256l.168.25759v5.95832a1.35505,1.35505,0,0,1-.24639.92958,1.456,1.456,0,0,1-1.01919.2576v.25759h3.05756v-.25759h-.25761a1.29923,1.29923,0,0,1-.76158-.2576,1.34393,1.34393,0,0,1-.336-.92958v-5.35352l5.70071,6.97749h.25761v-6.97749a2.29581,2.29581,0,0,1,.0784-.85118c.08959-.168.168-.336.25761-.336a2.24026,2.24026,0,0,1,.76158-.25759v-.168h-2.81116v.15678a1.42234,1.42234,0,0,1,1.03039.4256,2.53053,2.53053,0,0,1,.168,1.01919v3.57275l-4.08792-5.18553H269.2311Z" fill="#2f3187" fill-rule="evenodd"/><path d="M286.42283,151.91763a.672.672,0,0,1-.168.4256c-.168.0896-.25761.168-.34719.168a2.46388,2.46388,0,0,1-.76158-.24639,5.11806,5.11806,0,0,0-1.87039-.3472,4.16641,4.16641,0,0,0-2.24.60479,3.88626,3.88626,0,0,0-1.70236,1.61277,4.73748,4.73748,0,0,0-.672,2.24,4.60309,4.60309,0,0,0,.59359,2.128,4.15533,4.15533,0,0,0,1.61278,1.624,5.24145,5.24145,0,0,0,2.38557.504,3.94231,3.94231,0,0,0,1.792-.336,4.47963,4.47963,0,0,0,1.44479-1.12v-.68319a5.40948,5.40948,0,0,1-1.36638,1.19839,2.88973,2.88973,0,0,1-1.44479.336,2.99045,2.99045,0,0,1-1.61277-.4256,3.35994,3.35994,0,0,1-.8512-1.44477,7.12268,7.12268,0,0,1-.25761-2.04957,5.84666,5.84666,0,0,1,.336-2.128,4.12137,4.12137,0,0,1,.94078-1.18718,3.06878,3.06878,0,0,1,1.44479-.4256,2.97913,2.97913,0,0,1,1.70236.59359,3.13592,3.13592,0,0,1,1.01919,1.792h.23522v-2.83356Z" fill="#2f3187" fill-rule="evenodd"/><path d="M288.2036,158.90633a1.04152,1.04152,0,0,0-.2464.76158.96323.96323,0,0,0,.2464.68319,1.31045,1.31045,0,0,0,.77279.336,1.12,1.12,0,0,0,.68317-.336.79517.79517,0,0,0,.336-.68319.84.84,0,0,0-.336-.76158,1.04166,1.04166,0,0,0-.68317-.34719A1.2544,1.2544,0,0,0,288.2036,158.90633Z" fill="#2f3187" fill-rule="evenodd"/></svg>