<svg id="Layer_1" data-name="Layer 1" xmlns="http://www.w3.org/2000/svg" viewBox="0 0 300 300"><defs><style>.cls-1{fill:#ef5046;}</style></defs><path class="cls-1" d="M233.64,112.64c-29.07,5.64-56.72,15.2-82.67,29.75a46.67,46.67,0,0,1,3.87,5.71c32.6-17,67.4-26.24,103.77-30.06a304.78,304.78,0,0,0-108.8,39.36c1.75,2.11,3.32,4.2,4.74,6.29,42.68-24.92,88.87-37.3,137.93-39.77.22,0,.46,0,.53.18-38.67,3.64-75.28,14.61-110.29,31.2a227.36,227.36,0,0,0-25,13.82A47.16,47.16,0,0,1,162,180.57c.11.49.19,1,.29,1.5a5.6,5.6,0,0,1-1.47,1,101.11,101.11,0,0,0-7.19-11.43c-15.62,10.66-29.76,22.71-39.77,39.08a7.93,7.93,0,0,1-1.62-1,34.66,34.66,0,0,1,3-8.27,67.83,67.83,0,0,1,13.51-17.75,135.26,135.26,0,0,1,19.62-15.75l1.56-1.06c-1.67-2.15-3.45-4.08-5.28-6.11-9.12,6.07-17.72,12.69-25.06,21l-1.49-1.23c5.09-10.27,13.57-17.24,22.65-23.74-1.55-1.58-3.12-3.06-4.85-4.52a113,113,0,0,0-12,10l-1.35-1.43a50.09,50.09,0,0,1,10.08-11.37c-2.72-2.32-5.51-4.48-8.36-6.55A203.07,203.07,0,0,0,84.7,120.66a311.27,311.27,0,0,0-58.76-18.33C19.86,101,13.75,99.9,7.62,98.89c-.14,0-.27-.06-.63-.14a3,3,0,0,1,1.95,0,396.07,396.07,0,0,1,47,9,267.83,267.83,0,0,1,51.23,18.48,167.18,167.18,0,0,1,22.22,13l.72.49a48.67,48.67,0,0,1,6.14-5.55c-2.35-1.9-4.71-3.6-7.1-5.26a200.17,200.17,0,0,0-41.62-21.57A276,276,0,0,0,42.24,94.24L36.17,93A1.83,1.83,0,0,1,37.56,93c6.11.93,12.2,2,18.25,3.25a270.62,270.62,0,0,1,43.66,12.69,164.5,164.5,0,0,1,34.14,17.68c2.18,1.52,4.3,3.13,6.43,4.86,2.26-1.44,4.58-2.75,7-4a38.75,38.75,0,0,0-3.54-3.21A130.12,130.12,0,0,0,114,106,241.24,241.24,0,0,0,72.83,91.78c-3-.77-6-1.48-9-2.22.06-.31.26-.26.45-.22,17.26,3.43,34.33,7.55,50.72,14.11a107.93,107.93,0,0,1,24.86,13.46,59.28,59.28,0,0,1,9.34,8.57c.16.19.35.37.56.59,18.37-8.43,37.84-13,57.62-16.42A242,242,0,0,0,152,128.89l2.08,3.2a4.13,4.13,0,0,1-1.15,1.17l-3-3.24c-2.33,1.24-4.6,2.46-6.9,3.9,1.75,1.61,3.41,3.19,4.95,4.88,26.76-14.43,55.69-21.73,85.41-26.43C233.44,112.35,233.58,112.38,233.64,112.64Zm-94.59,23.72a77.51,77.51,0,0,0-6.68,5l5.29,4.14c2.08-1.61,4.32-3,6.63-4.49Zm2.14,12.17,4.92,4.7,6.31-3.74a66.57,66.57,0,0,0-4.72-5.16C145.49,145.7,143.33,147,141.19,148.53Z"/></svg>