<?xml version="1.0" encoding="utf-8"?>
<!-- Generator: Adobe Illustrator 28.3.0, SVG Export Plug-In . SVG Version: 6.00 Build 0)  -->
<svg version="1.1" id="Layer_1" xmlns="http://www.w3.org/2000/svg" xmlns:xlink="http://www.w3.org/1999/xlink" x="0px" y="0px"
	 viewBox="0 0 300 300" style="enable-background:new 0 0 300 300;" xml:space="preserve">
<style type="text/css">
	.st0{fill:#43278F;}
</style>
<path id="Layer" class="st0" d="M143,55.3h14c28.5,1.8,56.3,17.5,70.6,42.5c-8.9,6.3-17.9,12.6-26.9,18.8
	c-6.1-11.4-16.1-20.7-28.3-25.2c-17.3-6.5-37.9-5.4-53.6,4.8c-11.9,7.6-20.2,20.3-23.3,34c-3.8,16.3-1.7,34.4,7.3,48.8
	c7.8,12.5,20.9,21.4,35.5,24c15.2,2.7,31.7,0.3,44.7-8.4c7.5-4.9,13.3-11.9,17.7-19.6c9,6.2,17.9,12.5,26.9,18.8
	c-9.1,15.5-23.2,28-39.8,35.1c-24.2,10.4-52.8,10.4-76.7-0.7c-29.4-13.2-49.3-43.8-51-75.7V139c1.6-23.6,12.5-46.7,30.4-62.2
	C105.3,64.1,123.9,56.8,143,55.3L143,55.3z"/>
</svg>
