<svg id="Layer_1" data-name="Layer 1" xmlns="http://www.w3.org/2000/svg" viewBox="0 0 300 300"><defs><style>.cls-1{fill:#98958c;}.cls-2{fill:#084168;}</style></defs><title>CNC_Light_bg</title><g id="path30060"><path class="cls-1" d="M131.35,159.61h11v-7.75h-11Z"/></g><g id="path30096"><path class="cls-2" d="M142.36,153h0V135.58l9.45,0v-6.07h-30v6.06h9.51v24h0a8,8,0,0,1,3.06-4.17,12.37,12.37,0,0,1,8-2.42"/></g><g id="path30080"><path class="cls-2" d="M42.29,153.94c-12.17-.39-16.79-5.68-16.79-13,0-7.76,6.5-13,16.37-12.71s15.52,4.28,16.6,10.24H48.28c-.5-2.11-3.63-3.91-6.4-3.91-4.66,0-5.77,3.44-5.77,6.62s1.55,6.51,6.07,6.51c2.9,0,5.89-1.46,6.16-3.71l10.2.05c0,6.17-7.89,10.16-16.25,9.89"/></g><g id="path30076"><path class="cls-2" d="M59.74,153.21l.31-23.71H86.77l-.07,5.36H70.56l0,3.81,13.67,0v5.31l-13.73,0,.06,3.91H86.76v5.54l-27-.22Z"/></g><g id="path30092"><path class="cls-2" d="M109.35,153.29,99.06,140.76,99,153.41l-10.06-.12.21-23.77,9.92-.05,11.63,12.74-.21-12.74,10.27.05v23.89l-11.4-.12Z"/></g><g id="path30112"><path class="cls-2" d="M153,153.32l.32-23.71H180L180,135H163.82l0,3.81,13.66,0v5.31l-13.73,0,.07,3.91H180v5.55l-27-.23Z"/></g><g id="path30116"><path class="cls-2" d="M203.45,153.5,191.58,141l-.15,12.53H181.7V129.65h10.84l10.85,13.11V129.65h10V153.5Z"/></g><g id="path30064"><path class="cls-2" d="M242.05,153.12v-4.86H225.88l-.06-3.91,13.73,0V139l-13.67,0,0-3.81H242l.07-5.36H215.35L215,153.58l25.6.21a2.15,2.15,0,0,1,1.42-.67"/></g><g id="path30164"><path class="cls-2" d="M248.06,135.18c-2.05,0-3.72-1.21-3.72-2.69s1.67-2.69,3.72-2.69,3.73,1.21,3.73,2.69S250.12,135.18,248.06,135.18Zm0-5.1c-1.9,0-3.44,1.08-3.44,2.41s1.54,2.41,3.44,2.41,3.45-1.08,3.45-2.41S250,130.08,248.06,130.08Z"/></g><g id="path30160"><path class="cls-2" d="M246.19,134.11v-3.37h2.11a3.88,3.88,0,0,1,1,.09,1.06,1.06,0,0,1,.53.32.76.76,0,0,1,.2.51.72.72,0,0,1-.33.6,2,2,0,0,1-1,.32,2.06,2.06,0,0,1,.38.16,3,3,0,0,1,.52.45l.82.92h-.79l-.62-.7c-.19-.21-.34-.36-.46-.47a1.31,1.31,0,0,0-.32-.22,1,1,0,0,0-.28-.09l-.35,0h-.73v1.5Zm.63-1.88h1.35a2.36,2.36,0,0,0,.67-.07.73.73,0,0,0,.37-.2.41.41,0,0,0,.13-.3.44.44,0,0,0-.25-.39,1.4,1.4,0,0,0-.77-.16h-1.5v1.12"/></g><path class="cls-1" d="M131.15,161.13a5.61,5.61,0,0,0,3.15,5,12.23,12.23,0,0,0,6.34,1.33,14,14,0,0,0,4.5-.58l.54-1.94h-.54c-.62,1-2.1,1.5-4.31,1.5-4.34,0-7.42-2.23-7.42-5.38a6.13,6.13,0,0,1,.19-1.48l-2.23,0a6.55,6.55,0,0,0-.22,1.59"/><g id="path30108"><path class="cls-2" d="M133.6,159.61h8.78v-5.55l-.53,0c-4,0-7.44,2.4-8.25,5.57"/></g><path class="cls-1" d="M160.55,161.79c0,3.1-3.29,5.73-7.17,5.73-3.32,0-5.56-1.73-5.56-4.34,0-3.23,3.24-5.67,7.56-5.67,3,0,5.17,1.82,5.17,4.28m-10.76,1.62c0,1.88,1.48,3.11,3.75,3.11a4.88,4.88,0,0,0,5-4.9c0-1.9-1.35-3.11-3.48-3.11a5,5,0,0,0-5.31,4.9"/><path class="cls-1" d="M172,159.53h-.49c-.19-.62-.62-.89-1.43-.89a3.38,3.38,0,0,0-1.67.46,3,3,0,0,0-.94.71,3.43,3.43,0,0,0-.84,1.81l-1.59,5.75h-2l2.16-7.84.13-.39a1.51,1.51,0,0,0,.06-.36c0-.43-.25-.58-1-.58h-.19l.13-.42,3.43-.27-.57,2a4.69,4.69,0,0,1,3.91-2,5,5,0,0,1,1.56.27l-.67,1.75"/><path class="cls-1" d="M174.35,170.29a3.83,3.83,0,0,0-.13.56c0,.36.11.42.89.58l-.11.34h-4.1l.08-.34a2.09,2.09,0,0,0,.57-.1.9.9,0,0,0,.7-.79l3-11,.11-.39a1,1,0,0,0,.05-.36c0-.43-.21-.58-.94-.58h-.19l.11-.42,3.45-.27-.43,1.52a5.2,5.2,0,0,1,1-.7,7.54,7.54,0,0,1,3.42-.82c2.72,0,4.69,1.54,4.69,3.69,0,3.65-4.12,6.32-9.84,6.32a11.7,11.7,0,0,1-1.53-.09l-.79,2.86Zm1.27-3.8c.41,0,.76,0,1,0,4.75,0,7.69-2,7.69-5.15,0-1.77-1.3-2.86-3.35-2.86a5.59,5.59,0,0,0-3.88,1.65l-1.75,6.33h.24"/><path class="cls-1" d="M201.53,161.79c0,3.1-3.29,5.73-7.17,5.73-3.32,0-5.56-1.73-5.56-4.34,0-3.23,3.24-5.67,7.55-5.67,3,0,5.18,1.82,5.18,4.28m-10.76,1.62c0,1.88,1.48,3.11,3.75,3.11a4.88,4.88,0,0,0,5-4.9c0-1.9-1.35-3.11-3.48-3.11a5,5,0,0,0-5.31,4.9"/><path class="cls-1" d="M216.3,158.28a13.55,13.55,0,0,1,4.74-.77c2.78,0,4.31.71,4.31,2a3.09,3.09,0,0,1-.13.8L224,165a3.53,3.53,0,0,0-.16.8.77.77,0,0,0,.86.75,2.72,2.72,0,0,0,1.43-.52l.46.35a5,5,0,0,1-2.83,1.15c-1.27,0-2-.61-2.05-1.65a7.66,7.66,0,0,1-4.93,1.65c-2.08,0-3.56-1-3.56-2.34,0-2.52,3.83-4.29,10-4.58a2.16,2.16,0,0,0,.13-.73c0-.86-1.13-1.4-3-1.4a7,7,0,0,0-2,.27,4.07,4.07,0,0,0-2,1.11h-.49l.49-1.57Zm3.91,3.51c-3.13.56-4.91,1.68-4.91,3.1,0,.81.94,1.44,2.16,1.44a7.07,7.07,0,0,0,4.55-1.67l.86-3.19c-1.5.15-1.91.19-2.66.32"/><path class="cls-1" d="M213,159.53h-.48c-.19-.62-.62-.89-1.43-.89a3.38,3.38,0,0,0-1.67.46,2.85,2.85,0,0,0-.94.71,3.36,3.36,0,0,0-.84,1.81L206,167.37h-2l2.15-7.84.14-.39a1.49,1.49,0,0,0,0-.36c0-.43-.24-.58-1-.58h-.19l.14-.42,3.42-.27-.56,2a4.67,4.67,0,0,1,3.9-2,5,5,0,0,1,1.57.27l-.68,1.75"/><path class="cls-1" d="M233.69,157.66h2.72l-.19.69H233.5l-1.7,6.14a4.41,4.41,0,0,0-.19,1.17c0,.54.51.9,1.32.9a2.38,2.38,0,0,0,2.18-1h.44l-.44,1.58a9.16,9.16,0,0,1-2.66.36c-2,0-2.92-.57-2.92-1.69a4.42,4.42,0,0,1,.22-1.23l1.72-6.25h-1.59l.19-.69a3.21,3.21,0,0,0,1.22-.15c.45-.14.78-.58,1-1.35l.38-1.34,1.91-.35-.88,3.19"/><path class="cls-1" d="M258,161.79c0,3.1-3.29,5.73-7.17,5.73-3.32,0-5.55-1.73-5.55-4.34,0-3.23,3.23-5.67,7.54-5.67,3,0,5.18,1.82,5.18,4.28m-10.76,1.62c0,1.88,1.49,3.11,3.75,3.11a4.88,4.88,0,0,0,5-4.9c0-1.9-1.34-3.11-3.48-3.11a5,5,0,0,0-5.31,4.9"/><path class="cls-1" d="M240.61,164.49l-.21.75a1.09,1.09,0,0,0-.06.42.81.81,0,0,0,.87.88,3.19,3.19,0,0,0,1.4-.5l.35.31a5,5,0,0,1-2.91,1.17c-1.08,0-1.81-.59-1.81-1.48a4.33,4.33,0,0,1,.27-1.3l1.43-5.21.11-.39a1,1,0,0,0,0-.36c0-.43-.22-.58-.94-.58H239l.11-.42,3.45-.27-1.92,7Zm3-9.79c0,.75-.91,1.44-1.89,1.44-.72,0-1.24-.4-1.24-.94,0-.75.95-1.44,1.92-1.44.73,0,1.21.4,1.21.94"/><path class="cls-1" d="M264.8,159a8.44,8.44,0,0,1,4.79-1.44c2.21,0,3.7.92,3.7,2.25a6.71,6.71,0,0,1-.33,1.52l-.91,3.36a5.66,5.66,0,0,0-.27,1.25c0,.35.4.63.89.63a2.77,2.77,0,0,0,1.43-.51l.4.38a4,4,0,0,1-.89.6,5,5,0,0,1-2.13.53c-1.05,0-1.78-.57-1.78-1.38a4.36,4.36,0,0,1,.19-1l1.1-4a4.05,4.05,0,0,0,.19-1.07c0-.89-1-1.56-2.45-1.56a5.92,5.92,0,0,0-2.75.77,7.63,7.63,0,0,0-1.59,1.15l-1.91,7h-2.05l2.18-7.84.11-.39a2.23,2.23,0,0,0,0-.36c0-.43-.24-.58-.94-.58h-.19l.11-.42,3.45-.27-.4,1.44"/><g id="path30104"><path class="cls-1" d="M145.53,156.79l2.4-1.69c-1.29-1.46-3-2.08-5.62-2.08v1c1.92.11,3.22.82,3.22,1.81,0,.25-.08.4-.38.63l.38.29"/></g></svg>