<svg id="Layer_1" data-name="Layer 1" xmlns="http://www.w3.org/2000/svg" viewBox="0 0 300 300"><defs><style>.cls-1{fill:#e6192f;}.cls-2{fill:#2fa1d3;}.cls-3{fill:#1470af;}.cls-4{fill:#9d1a36;}.cls-5{fill:#0073bd;}</style></defs><title>CVX_Light_bg</title><path class="cls-1" d="M150.24,186.54a29.74,29.74,0,0,0,3.32-1l42.09-14Q212.84,165.74,230,160c1.29-.43,1.2-.55,1.2.88v51.31c0,1.41.19,1.14-1.2,1.6l-66.93,22.32c-4,1.33-8,2.63-11.94,4a2.21,2.21,0,0,1-1.48,0q-8.68-2.93-17.4-5.83L70.73,213.79c-.29-.1-.58-.22-.87-.34,0-.42.3-.59.63-.73.5-.21,1-.37,1.53-.54q37.76-12.57,75.51-25.17A6,6,0,0,1,150.24,186.54Z"/><path class="cls-2" d="M150.39,124.06l15.49-5.15L230,97.56c1.19-.4,1.19-.4,1.19.86v51.39c0,1.22.09,1.09-1.07,1.47L176.91,169q-12.71,4.24-25.41,8.48a3.13,3.13,0,0,1-2.05,0q-31.78-10.62-63.58-21.2l-15-5c-.32-.11-.64-.24-1-.36,0-.54.42-.64.78-.78,1.41-.52,2.85-1,4.27-1.43l72.46-24.16A6.61,6.61,0,0,1,150.39,124.06Z"/><path class="cls-3" d="M150.39,124.06q-8.67,2.89-17.34,5.79L74.49,149.37c-1.53.51-3.08,1-4.58,1.59-.25-.25-.19-.58-.19-.88,0-1.17,0-2.33,0-3.49V98.79c0-.37,0-.74,0-1.11a.33.33,0,0,1,.46-.33c.3.08.6.17.89.27l41.87,14,36.55,12.16C149.81,123.83,150.1,124,150.39,124.06Z"/><path class="cls-4" d="M150.24,186.54c-.48.17-1,.36-1.44.52L71.21,212.92a7.14,7.14,0,0,0-1.35.53c-.22-.27-.14-.59-.14-.9V160.76c0-.14,0-.28,0-.42,0-.53.13-.61.64-.45,1,.3,1.93.64,2.9,1l20.08,6.68L140,183.05q4.76,1.57,9.5,3.18C149.72,186.32,150,186.43,150.24,186.54Z"/><path class="cls-5" d="M92.17,90.59a17.33,17.33,0,0,1-7.38,1.34c-10.17,0-16-7-16-15.93,0-10.62,7.45-16.25,16.7-16.25a13.53,13.53,0,0,1,6.7,1.34L91,67.44a11.77,11.77,0,0,0-5.29-1.15c-4.4,0-9.09,2.62-9.09,9.59,0,6.25,3.73,9.54,9.13,9.54A11.4,11.4,0,0,0,91,84.24Z"/><path class="cls-5" d="M126.79,81.91c.26,2.91,2.67,4.46,6.39,4.49a13.72,13.72,0,0,0,6.6-1.66l1,5.37a19.39,19.39,0,0,1-8.65,1.82c-8.21,0-12.61-4.94-12.61-12.5,0-7.31,4.73-12,11.82-12,7.3,0,10.57,5.38,10.57,12.12a20.94,20.94,0,0,1-.16,2.39h-15m8.29-4.9c0-1.69-.83-4.65-4-4.65-2.81,0-4.12,2.41-4.32,4.65Z"/><polygon class="cls-5" points="150.06 90.97 142.44 68.36 150.05 68.36 154.19 84.36 154.33 84.36 158.47 68.36 166.07 68.36 158.46 90.97 150.06 90.97"/><path class="cls-5" d="M168,75.79c0-3.32-.11-5.49-.25-7.43h6.5l.19,4.2h.18c1.14-3.32,3.31-4.59,5.56-4.71a8.21,8.21,0,0,1,2.3.13V74.6a11.77,11.77,0,0,0-2.76-.19,5.23,5.23,0,0,0-4.71,4.4,7.32,7.32,0,0,0-.14,1.57V91H168Z"/><path class="cls-5" d="M206.74,79.67c0,7.4-4.46,12.26-11.7,12.26s-11.71-4.86-11.71-12.26S187.81,67.4,195,67.4s11.7,4.85,11.7,12.27m-7.15,0c0-3.69-1.26-6.89-4.55-6.89s-4.55,3.2-4.55,6.89,1.26,6.88,4.55,6.88,4.55-3.2,4.55-6.88"/><path class="cls-5" d="M209.81,75.57c0-2.82-.11-5.23-.25-7.21h6.49l.15,3.16h.14a8.35,8.35,0,0,1,7-3.88c4.55,0,7.52,3.09,7.52,9.75V91H224V78.43c0-2.91-1-4.89-3.49-4.89a3.73,3.73,0,0,0-3.54,2.63,5.49,5.49,0,0,0-.23,1.76V91h-6.89Z"/><path class="cls-5" d="M109.06,67.64a8.21,8.21,0,0,0-6.74,3.23h-.08v-11l-6.9,2.38V91h6.9V77.55a3.78,3.78,0,0,1,3.67-4c2.58,0,3.58,2,3.58,5V91h6.9V77.57c0-6.83-2.93-9.93-7.33-9.93"/></svg>