<svg id="Layer_1" data-name="Layer 1" xmlns="http://www.w3.org/2000/svg" viewBox="0 0 300 300"><defs><style>.cls-1{fill:#5cc863;fill-rule:evenodd;}</style></defs><path id="Layer" class="cls-1" d="M134.73,132.57A43.13,43.13,0,0,1,150.15,99.5a43.31,43.31,0,0,1-.13,66.23A43.33,43.33,0,0,1,134.73,132.57ZM201.9,79.89a32.91,32.91,0,0,1-19.31,46.46A33,33,0,0,1,201.9,79.89ZM98.39,79.68a32.9,32.9,0,0,1,19.15,46.5,32.92,32.92,0,0,1-19.15-46.5ZM25,152.69A32.92,32.92,0,0,1,71.42,172,32.92,32.92,0,0,1,25,152.69Zm250,.55a32.93,32.93,0,0,1-46.54,19.14A33,33,0,0,1,275,153.24ZM255.18,205a43.46,43.46,0,0,1-66.32-.08,43.46,43.46,0,0,1,66.32.08ZM224.56,130.5a43.46,43.46,0,0,1-47,46.8,43.45,43.45,0,0,1,47-46.8ZM111.23,204.91a43.46,43.46,0,0,1-66.32.08,43.46,43.46,0,0,1,66.32-.08Zm11.26-27.61a43.4,43.4,0,0,1-47-46.8,43.39,43.39,0,0,1,47,46.8Z"/></svg>