<svg id="Layer_1" data-name="Layer 1" xmlns="http://www.w3.org/2000/svg" viewBox="0 0 300 300"><defs><style>.cls-1,.cls-3{fill:#004683;}.cls-1{fill-rule:evenodd;}.cls-2{fill:#e62c0e;}</style></defs><title>C_Light_bg</title><path class="cls-1" d="M95.25,192.48l-.47.48c-6.14,6.13-13.22,9.43-20.76,9.43-15.58,0-26.9-11.33-26.9-27.37,0-16.52,11.32-27.84,26.9-27.84,7.54,0,14.62,3.3,20.76,9.44l.47.47,9.91-11.8v-.47c-8.49-9.9-18.41-14.63-30.67-14.63s-23.6,4.25-31.62,11.8c-9,8-13.21,19.35-13.21,33,0,13.21,4.25,24.54,13.21,32.56,8,7.55,19.35,11.79,31.62,11.79s22.18-4.71,30.67-14.62v-.48l-9.91-11.79Z"/><polygon class="cls-1" points="116.01 217.49 133.47 217.49 133.47 131.61 116.01 131.61 116.01 217.49 116.01 217.49"/><path class="cls-1" d="M199.53,199.09a24.13,24.13,0,0,1-12.74,4.24c-5.66,0-8.49-2.83-8.49-9.9V148.12h17.93V131.61H178.3v-26.9l-17,9.44v17.46h-15.1v16.51h15.1v48.61c0,13.21,7.55,22.17,19.35,22.17,8,.47,12.74-1.88,15.57-3.77h.47v-.47L201,198.14l-1.42,1Z"/><polygon class="cls-1" points="212.27 217.49 230.2 217.49 230.2 131.61 212.27 131.61 212.27 217.49 212.27 217.49"/><path class="cls-2" d="M173,98.25a71.44,71.44,0,0,1,49.93,20.29H246a89.23,89.23,0,0,0-146,0h23.07A71.42,71.42,0,0,1,173,98.25Z"/><path class="cls-3" d="M250.42,114.2a9.87,9.87,0,0,1,10-10,9.75,9.75,0,0,1,9.92,9.92,9.9,9.9,0,0,1-10,10A9.75,9.75,0,0,1,250.42,114.2Zm17.92,0a7.9,7.9,0,0,0-8-8.2,7.79,7.79,0,0,0-7.92,8.11,7.91,7.91,0,0,0,8,8.2A7.79,7.79,0,0,0,268.34,114.2Zm-11.9-5.68h4.21c2.63,0,4.21,1.15,4.21,3.53a3.1,3.1,0,0,1-2,3.15l2.13,4.15h-2.72l-1.93-3.82H259v3.82h-2.58Zm4.05,5.14c1.23,0,1.83-.44,1.83-1.45s-.6-1.4-1.83-1.4H259v2.85Z"/></svg>