<svg id="Layer_1" data-name="Layer 1" xmlns="http://www.w3.org/2000/svg" viewBox="0 0 300 300"><defs><style>.cls-1{fill:#005daa;}.cls-2{fill:#e31837;}</style></defs><title>COST_Logo_Light</title><path class="cls-1" d="M110.1,167.41l.64,10.09h.16a21.35,21.35,0,0,1,1.21-3.12l3.48-7h5.66l.85,10.09h.16a22.17,22.17,0,0,1,1.08-3l3.4-7.11h7.67L124,184.32H117.6l-.57-9.2h-.24a15.41,15.41,0,0,1-.86,2.56l-3.31,6.64h-6.27l-3.9-16.91Z"/><path class="cls-1" d="M133.87,167.41H141l-1.08,5.69h4.52l1.08-5.69h7.11l-3.22,16.91h-7.1l1.11-5.88h-4.52l-1.12,5.88h-7.1Z"/><path class="cls-1" d="M173.42,175.91c-1,5.43-6.68,8.68-12.87,8.68s-10.61-3.26-9.58-8.68,6.73-8.77,12.89-8.77,10.57,3.45,9.56,8.77Zm-15,.09c-.37,1.92.94,3.25,3.17,3.25A4.27,4.27,0,0,0,166,176c.34-1.8-.83-3.3-3.17-3.3A4.32,4.32,0,0,0,158.39,176ZM175,167.41h7.38l-2.19,11.48h6.2l-1,5.43H171.83Zm28.84,10.85.33.25a7.27,7.27,0,0,0,4.31,1.55c.72,0,1.93-.25,2.07-1s-.81-.83-1.46-.94l-1.44-.23c-2.8-.43-4.95-1.84-4.45-4.48.77-4,5.58-6.26,10-6.26a12.32,12.32,0,0,1,6.16,1.48L216.57,173a7.4,7.4,0,0,0-4-1.28c-.64,0-1.62.2-1.75.89s.77.72,1.32.83l1.61.32c3,.58,5,2,4.47,4.84-.77,4-5.57,6-10,6a19.19,19.19,0,0,1-7.51-1.55l3.17-4.78Z"/><path class="cls-1" d="M229.22,178.19l-.29-3a17.65,17.65,0,0,1-.07-2.18h-.27l-2.33,5.16Zm-6.42,6.13H215l10.27-16.91h8.16l4,16.91h-7.8l-.27-2.11h-5.58l-1,2.11Z"/><path class="cls-1" d="M240,167.41h7.38l-2.18,11.48h6.19l-1,5.43H236.83Zm14.94,0h13.65l-.88,4.62h-6.22l-.3,1.61h5.68l-.84,4.4h-5.68l-.31,1.66h6.43l-.88,4.62H251.77Z"/><path class="cls-2" d="M154.9,137l9.31-.35-7.81,25.75h16.71l7.81-25.75,9.1.35,3.71-12.23H158.6L154.9,137Zm-34.61,6.68C118,155.77,105.15,163,91.13,163s-24-7.24-21.7-19.32c2.29-11.83,15.24-19.51,29.21-19.51s23.94,7.69,21.65,19.51Zm-34.06.2c-.83,4.3,2.14,7.24,7.19,7.24s9.17-2.94,10-7.24c.78-4-1.87-7.33-7.18-7.33s-9.24,3.34-10,7.33Z"/><path class="cls-2" d="M115.1,159.56a43.93,43.93,0,0,0,17,3.45c9.94,0,20.8-4.44,22.54-13.43,1.24-6.38-3.29-9.48-10.11-10.78l-3.65-.7c-1.23-.25-3.27-.44-3-1.84s2.52-2,4-2A17,17,0,0,1,151,137.1l6.38-9.63a28.35,28.35,0,0,0-13.94-3.29c-10,0-20.91,5-22.63,13.92-1.14,5.89,3.74,9,10.08,10l3.26.49c1.47.26,3.64.4,3.31,2.1s-3.06,2.25-4.7,2.25a16.67,16.67,0,0,1-9.77-3.45l-.74-.55Zm111.16-33.83a38.73,38.73,0,0,0-10.92-1.55c-13.48,0-25.73,8.78-27.85,19.76C185.41,154.67,194,163,207.16,163c3,0,9.29-.45,12.18-1.5l3.21-14.07a17.68,17.68,0,0,1-10.25,3.49c-5,0-8.71-3.19-7.91-7.33s5.51-7.34,10.51-7.34a13.53,13.53,0,0,1,9.08,3.8l2.28-14.33ZM253,124.18c-14,0-26.92,7.68-29.21,19.51-2.33,12.08,7.67,19.32,21.7,19.32s26.83-7.24,29.16-19.32C277,131.87,267,124.18,253,124.18Zm-2.4,12.38c5.31,0,8,3.34,7.18,7.33-.83,4.29-4.94,7.24-10,7.24s-8-2.95-7.2-7.24c.78-4,4.72-7.33,10-7.33ZM73.74,117.28a50.07,50.07,0,0,0-13.62-1.87C43.31,115.41,28,126,25.38,139.3c-2.58,13,8.18,23,24.54,23,3.72,0,11.59-.54,15.19-1.8l4-17a22.4,22.4,0,0,1-12.78,4.23c-6.24,0-10.87-3.87-9.87-8.87S53.33,130,59.56,130a17.17,17.17,0,0,1,11.33,4.58l2.85-17.31Z"/><path class="cls-2" d="M264.39,160.58a3.33,3.33,0,0,1,3.31-2.37c1.58,0,2.65,1.06,2.41,2.37A3.35,3.35,0,0,1,266.8,163C265.2,163,264.14,161.9,264.39,160.58Zm5,0c.2-1.06-.56-1.75-1.78-1.75a2.32,2.32,0,0,0-2.44,1.75c-.2,1.06.53,1.76,1.77,1.76a2.34,2.34,0,0,0,2.45-1.76Zm-1,1.24h-.74l-.46-1h-.48l-.2,1h-.63l.47-2.48h1.45c.64,0,1,.17.87.76a.82.82,0,0,1-.8.67l.52,1Zm-.91-1.53c.31,0,.58,0,.63-.26s-.23-.22-.54-.22h-.68l-.09.48Z"/><polygon class="cls-1" points="26.55 184.35 104.76 184.35 104.76 184.32 104.69 184.32 103.7 180.02 26.55 180.02 26.55 184.35"/><polygon class="cls-1" points="26.55 178.2 103.28 178.2 102.29 173.87 26.55 173.87 26.55 178.2"/><polygon class="cls-1" points="26.55 172.02 101.84 172.02 101.5 170.45 100.81 167.44 26.55 167.44 26.55 172.02"/><polygon class="cls-1" points="189.98 167.41 203.63 167.41 202.75 172.03 196.53 172.03 196.22 173.64 201.9 173.64 201.07 178.04 195.39 178.04 195.07 179.7 201.51 179.7 200.63 184.32 186.76 184.32 189.98 167.41"/></svg>