<svg id="Layer_1" data-name="Layer 1" xmlns="http://www.w3.org/2000/svg" viewBox="0 0 300 300"><defs><style>.cls-1{fill:#c00;fill-rule:evenodd;}</style></defs><title>CVS_Light_bg</title><path class="cls-1" d="M90.81,74.36a23.1,23.1,0,0,1,32.29.24Q136.56,88,150,101.5l25.78-25.79a24.89,24.89,0,0,1,6.55-5.12,23.1,23.1,0,0,1,26.48,3.47q16.8,16.77,33.57,33.56a23.21,23.21,0,0,1,4.15,26.14c-2,4.31-5.66,7.4-8.91,10.72L150,232.1l-92-92a23.69,23.69,0,0,1-6.88-14.5V121.7a23.29,23.29,0,0,1,6.9-14.59q16.4-16.36,32.76-32.75Z"/></svg>