<svg id="Layer_1" data-name="Layer 1" xmlns="http://www.w3.org/2000/svg" viewBox="0 0 300 300"><defs><style>.cls-1{fill:#1279bf;fill-rule:evenodd;}</style></defs><path id="Global-_-Logos-_-Primary-_-Alt-2" data-name="Global-/-Logos-/-Primary-/-Alt-2" class="cls-1" d="M216.78,232.55c-8,0-14.52-5.55-14.52-12.42s6.49-12.42,14.52-12.42,14.59,5.55,14.59,12.42S224.88,232.55,216.78,232.55ZM192.69,67.45v45.78h53.6v73h-53.6v45.85H107.31V186.21H53.71v-73h53.6V67.45ZM229.1,220.13c0-5.76-5.43-10.4-12.24-10.4s-12.25,4.64-12.25,10.4,5.52,10.48,12.25,10.48S229.1,225.89,229.1,220.13Zm-10.54-7.21c4.3,0,5.84,1.38,5.84,4,0,2.78-2.27,3.75-5.19,4l4.94,6.31H221.8l-4.7-6.31h-3.57v6.31h-2.11V212.92Zm-.49,1.66h-4.54v4.58h2.92c2.35,0,5.6.35,5.6-2.29C222.05,214.86,220.1,214.58,218.07,214.58Zm-68.19-61.81c-2.27,0-3.41,1.11-4.7,3.06-.65.83-5.68,7.14-11.19,14l-3.33,4.09c-4.38,5.48-8.51,10.62-10.3,12.84a59.26,59.26,0,0,0,27.57,7.83l2.35.07A59.14,59.14,0,0,0,179.64,187s-23.76-29.34-25.06-31.21-2.51-3.06-4.7-3.06Zm0,8.61c1.54,0,19,23.44,19,23.44-5.11,2.29-11.59,3.4-19,3.47s-13.87-1.18-19.06-3.47C130.82,184.82,148.26,161.38,149.88,161.38ZM200,134.05c-13.22.2-25.06,1.94-32.27,2.28-7.62.42-13.14,3.82-8,12,2,3.26,5.92,9.5,10,15.88l1.87,3c5.27,8.4,10.22,16.44,11.11,17.83l.08.14c12.49-8.25,20.43-21.16,20.43-35.66A38.49,38.49,0,0,0,200,134.05Zm-99.41.06a38,38,0,0,0-3.17,15.4c0,14.23,7.71,26.92,19.79,35.17,3.41-5.41,18.16-28.92,22.79-36.34,5.19-8.19-.41-11.59-8-12C124.9,136,113.39,134.39,100.58,134.11Zm94,6.59c3.16,14.92-2,25.6-10.06,34.2,0,0-16.3-26.36-18.08-29.2s0-3,2-3.26c.73,0,5.92-.35,11.43-.69l3-.21c6.08-.42,11.76-.84,11.76-.84Zm-89.44,0s5.67.42,11.76.84l3,.21c5.59.34,10.7.69,11.43.69,2,.21,3.81.42,2,3.26s-18.17,29.2-18.17,29.2c-8-8.6-13.13-19.28-10-34.2Zm45.16-36.28a58,58,0,0,0-35.84,12l-1.54,1.24a46.52,46.52,0,0,0-10.54,13H137.8c3.56,0,6.4-.84,8-2.29,2.11-1.88,2.27-4.58-.64-7.63-5.11-5.34-.65-10.48,4.7-10.27s9.81,4.93,4.7,10.27c-2.92,3-2.76,5.75-.65,7.63,1.71,1.45,4.46,2.29,8,2.29h36.41a46.73,46.73,0,0,0-11.6-13.81C177.29,109.14,164.39,104.42,150.28,104.42Zm-13.86,8.12c-2.68,8,2.92,8.6,2.92,12.21H115A38.67,38.67,0,0,1,136.42,112.54Zm26.84,0c8.27,1.53,15.32,7,21.49,12.21H160.42C160.42,121.14,166,120.59,163.26,112.54Z"/></svg>