<svg id="Layer_1" data-name="Layer 1" xmlns="http://www.w3.org/2000/svg" viewBox="0 0 300 300"><path d="M289.88,128.05c.32-.54,0-1-.71-1H277.1c-.89,0-1.36.11-1.78.94-1.39,2.66-18.27,27.95-21.41,32.86-.52.75-1.17.65-1.25-.21-.31-2.92-2.83-6.28-6.8-7.88a17.34,17.34,0,0,0-9.05-1c-5.55.74-10.5,3.68-14.85,7-6.54,5-12.2,11.43-19.5,16.22-4,2.59-9.45,4.85-13.1,1.48-3.3-3.07-2.92-9.87,2.13-15.14.53-.55,1.18-.09,1.07.41a6.66,6.66,0,0,0,1.92,6.41,7.16,7.16,0,0,0,8.05.88,10.59,10.59,0,0,0,5.61-8.09,9.19,9.19,0,0,0-8.46-10.48c-4.21-.3-8.24,1.16-12.16,4.4a23,23,0,0,0-4.78,5.27c-.41.59-1.06.65-1-.23.2-6.88-2.64-10.74-8.32-10.88-4.41-.1-9.13,2.3-12.8,5.22-4,3.23-7.54,7.53-11.31,11.56-.47.5-.88.47-1-.5-.12-4.55-1.25-9-3.37-12.1a2.8,2.8,0,0,0-3.63-.89,26.92,26.92,0,0,0-4.27,2.55,2.42,2.42,0,0,0-.73,2.72,31.78,31.78,0,0,1-1.17,21.07c-2.54,6-7.47,11.39-13.26,13.22-3.82,1.21-7.79.62-10.25-2.76-3.36-4.66-2-12.8,3-19.52,4.44-5.93,10.85-9.7,17.24-12.13a1,1,0,0,0,.7-1.42c-.35-1.06-.91-2.49-1.13-3.14-.59-1.55-2.24-1.81-4.24-1.6a36.23,36.23,0,0,0-13,4.35c-10.85,5.81-16.28,17-18.66,23.06a23.22,23.22,0,0,1-3.4,6.29c-1.7,2.15-3.86,4.11-7.78,7.56a1.37,1.37,0,0,0-.32,1.59c.41.83,2.45,3.71,3,4a1.74,1.74,0,0,0,1.67-.33,39.92,39.92,0,0,0,7.65-6.82c.56-.68,1.15-.39,1.45.65a16.89,16.89,0,0,0,10.86,11.56c9.94,3.35,20.26-1.51,28-10,5-5.37,6.73-8.82,8.63-11.18,3.21-4,9.55-12.9,17.1-18.61,2.78-2.12,6-3.71,7.7-2.66,1.33.86,1.75,2.85-.38,6.71-7.69,14.06-19,30.58-21.1,34.6-.38.69-.05,1.23.67,1.23H161a1.4,1.4,0,0,0,1.19-.74c5.92-9.25,11.47-18.06,17.43-27.16.33-.54.63-.12.65.13a14.93,14.93,0,0,0,1.9,6.89,10.33,10.33,0,0,0,9,5c2.82,0,4.24-.39,7.28-1.53a25.16,25.16,0,0,0,6-3.21c.89-.62,1,.42,1,.57-1.37,7.35.32,16,7.62,19.66,8.74,4.3,18.33-1.75,23.85-7.21.55-.53,1.12-.47,1.18.66a10,10,0,0,0,2.79,6.29c4.63,4.65,14,2.81,23.32-4.45a117.55,117.55,0,0,0,18-18.14.82.82,0,0,0,0-1.14c-.86-.9-2.12-1.94-3-2.74a1.06,1.06,0,0,0-1.29,0c-5.83,5.54-11.08,11.86-18.66,17.1-2.55,1.78-6.64,3.22-8.47.75-.71-1-.63-2.29.08-4C253.05,184.49,288.07,131.2,289.88,128.05Zm-46.27,44.68c.08.41.6.8,1.13,1,.18.06.29.2.08.63a52,52,0,0,1-4.72,7.8,29.12,29.12,0,0,1-6,6.48c-3.53,2.92-8.44,6.09-12.49,4-1.8-.93-2.58-3.45-2.55-5.49.09-5.73,2.64-11.63,7.34-17.41,5.75-7.07,12.1-10.74,16.27-8.73s2.94,7,1,11A1.1,1.1,0,0,0,243.61,172.73Z" fill="#020957"/><path d="M36,203.07c-13,.09-24.55-8-25.86-21.93A28.08,28.08,0,0,1,16,160.83c3.88-5.05,10.45-9.26,16-10.29,1.81-.33,4.24-.12,5.25,1.07,1.58,1.84,1.12,3.85-.45,4.67-4.24,2.17-9.35,5.88-11.87,10.93a13.43,13.43,0,0,0,.66,13.87c5.23,7.92,19.85,8.13,33.43-4.5A118.29,118.29,0,0,0,68.45,167c6-6.84,8-9.34,15.93-20.37a.4.4,0,0,0,.07-.38c-.06-.13-.18-.18-.4-.19a24.26,24.26,0,0,0-14.44,5.1,2.8,2.8,0,0,1-4-.44,3.18,3.18,0,0,1,1.23-4.27c7.25-5,15.15-5.94,23.22-7.3a1.31,1.31,0,0,0,1-.59c3.32-4.25,5.82-8.09,9.35-12.39a93.55,93.55,0,0,1,11.68-11.37,51.82,51.82,0,0,1,11.24-7.38c.84-.43-.11-1-.37-1-17.84-3.35-36.38-7.7-54.11-1.13-12.26,4.58-17.65,14.31-15.05,20.81,1.84,4.62,7.9,5.36,13.59,2.58a30.52,30.52,0,0,0,12.17-10.83c1.74-2.65,5.39-.74,3.41,3.88-5.19,12.19-15.1,21.86-27.17,22.27C45.58,144.39,39,136.83,39,127.51,39,109.12,59.49,97,81,95.19c25.91-2.14,50.44,4.75,76.16,7.88,19.7,2.38,38.6,2.44,58.4-2.11a3,3,0,0,1,3.83,3.34c-.2,3.43-2.84,6.72-9.37,10.28-7.42,4.07-15.18,5.29-23.29,5.37-19.6.16-37.87-7.48-56.76-11.59,0,.83.25,1.81-.45,2.34-10.45,7.73-19.91,15.57-26.25,26.58-.21.26-.09.5.27.47,5.51-.29,10.46-.44,15.59-.84.89-.08.93-.31.84-.95a12.77,12.77,0,0,1,4-11.11c3.41-3.06,7.69-3.41,10.53-1.21,3.23,2.52,2.94,7,1.18,10.43a12.56,12.56,0,0,1-7.61,6.17s-.59.14-.51.68c.12.87,4,3,4.33,3.59a1.82,1.82,0,0,1-.44,2,2.49,2.49,0,0,1-1.87.89,4,4,0,0,1-1.91-.71,18.52,18.52,0,0,1-5.37-4.32c-.5-.62-.74-.63-2-.56-5.55.32-14.23,1.17-20.1,1.89-1.41.18-1.62.44-1.93.93C88.91,160.11,78.92,176.76,68,187.9,56.18,199.84,46.39,203,36,203.07Zm89.22-68.59c.15.8.45,1,.81.87a8.6,8.6,0,0,0,4.89-3.51c1.06-1.54,1.55-3.77.5-4.66a2.77,2.77,0,0,0-3.58.42A7.91,7.91,0,0,0,125.22,134.48Z" fill="#020957"/></svg>