<svg id="Layer_1" data-name="Layer 1" xmlns="http://www.w3.org/2000/svg" viewBox="0 0 300 300"><defs><style>.cls-1{fill:#3073b7;}</style></defs><title>GM_Light_bg</title><path class="cls-1" d="M110.49,180.74l-7.51.14s.21,10.87,0,10.87c12.77,0,21.9-2,27-9.68a19.48,19.48,0,0,0,3.09-9.82V107.68H106.91c-1,.28-7.79,1.76-10.17,7.86a11.17,11.17,0,0,0-.78,4.28v35.37A13.35,13.35,0,0,0,98.42,163c.14.14.28.35.42.49a4,4,0,0,0,.49.57,13.25,13.25,0,0,0,9.76,4.14h11.23C122.21,180.46,110.49,180.74,110.49,180.74Zm10-24h-9a3.39,3.39,0,0,1-2.24-1.2,3.74,3.74,0,0,1-.91-2.24V121.79a5.37,5.37,0,0,1,1.26-2.25,5,5,0,0,1,2.67-1.4h8.14v38.6Zm22.31,11V107.61h50.67a13.48,13.48,0,0,1,7.93,3.86,13.21,13.21,0,0,1,3.51,6.67v49.54H193v-45a4.38,4.38,0,0,0-1.55-3.37h0a4.83,4.83,0,0,0-3.15-1.12h-8.07v49.54H168V118.21H155.61v49.54Zm0,24v-11h62.11v11ZM213.51,62.56h-127A24,24,0,0,0,62.56,86.49V211.54a25.88,25.88,0,0,0,25.9,25.9H213.51a24,24,0,0,0,23.93-23.93v-127A23.87,23.87,0,0,0,213.51,62.56Zm12.91,149.83a14,14,0,0,1-14,14H87.61a14,14,0,0,1-14-14V87.61a14,14,0,0,1,14-14H212.39a14,14,0,0,1,14,14Z"/></svg>