<svg id="Layer_1" data-name="Layer 1" xmlns="http://www.w3.org/2000/svg" viewBox="0 0 300 300"><path d="M55,55H245V245H55Z" fill="#fff"/><path d="M55,55h119.2c9.59,0,19.19,0,28.77,0-2.66,2.7-5.37,5.37-8,8.06,1.05,1.12,2.17,2.16,3.23,3.25a16.88,16.88,0,0,1,8.18-3.23,15.83,15.83,0,0,1,7.88,1.5,9.9,9.9,0,0,0,2.87,1.14,2.75,2.75,0,0,0,2.18-1.9A1.67,1.67,0,0,0,218.8,62c-2.32-2.33-4.65-4.62-7-7C222.91,55,234,55,245,55c0,10.78,0,21.57,0,32.36-2.27-2.23-4.49-4.51-6.74-6.74a2.17,2.17,0,0,0-2.4-.56,2.59,2.59,0,0,0-1.29,1.26,5.17,5.17,0,0,0,.68,3.33,17.3,17.3,0,0,1,1.59,9.53,15.63,15.63,0,0,1-2.27,6.29c-.32.46-.62.94-.9,1.42,1.16,1,2.13,2.19,3.31,3.17,2.63-2.72,5.35-5.37,8-8.06q0,27,0,54c-.52.18-1.1.54-1.64.28a13.1,13.1,0,0,1-1.85-1.72c-6.46-6.42-12.87-12.9-19.35-19.31-2.58,2.58-5.11,5.17-7.72,7.68,1.37,1.56,2.91,2.94,4.35,4.43q7.77,7.78,15.58,15.56a4.75,4.75,0,0,1,1.19,1.46c.08.66-.37,1.22-.55,1.82a1.19,1.19,0,0,0,1,1.55,1.9,1.9,0,0,0,1.64-.76c2.43-2.45,4.89-4.88,7.32-7.32V245H154.7c2.31-2.31,4.63-4.6,6.94-6.92q-11.82-11.79-23.6-23.6c-2.57,2.48-5,5-7.6,7.54a5.32,5.32,0,0,0-1.4,1.86,1.36,1.36,0,0,0,1.28,1.47c.64-.08,1.18-.5,1.82-.63a2,2,0,0,1,1.39.75c4.67,4.71,9.36,9.38,14.05,14.07,1.17,1.23,2.45,2.35,3.55,3.63.5.56.16,1.28-.12,1.83H97l12.75-12.74a4.74,4.74,0,0,0,1.74-2.8,2.23,2.23,0,0,0-2.52-2.39c-1.11.22-2,1.1-3.19,1.1a3.07,3.07,0,0,1-1.79-1.08q-15.24-15.19-30.43-30.42a5.35,5.35,0,0,1-1.73-2.32c0-1.15.77-2.09,1.07-3.15a2.23,2.23,0,0,0-2.23-2.69,3.76,3.76,0,0,0-2.41,1.25C63.87,194.19,59.4,198.58,55,203q0-74,0-148" fill="#e66d2d"/><path d="M192,66c.18-.2.5-.38.68-.08q20.86,20.82,41.7,41.69l-14.63,14.64a3.8,3.8,0,0,1-2.29,1.16,2.2,2.2,0,0,1-2.33-2.23c0-1.22,1.07-2.16,1.09-3.4,0-.77-.56-1.35-1-1.89q-15.48-15.43-30.93-30.92c-.58-.56-1.21-1.26-2.09-1.2-1.3,0-2.28,1.22-3.59,1.08a2.17,2.17,0,0,1-1.76-1.2,2.91,2.91,0,0,1,.74-3.17Q184.83,73.19,192,66m20,4a2.18,2.18,0,0,1,2.06-1.29,4.16,4.16,0,0,1,2.37,1.55q6,6,12,12a5,5,0,0,1,1.84,2.56,2.27,2.27,0,0,1-2,2.27,5.3,5.3,0,0,1-2.55-.92,10.35,10.35,0,0,0-5.63-1.69,7.15,7.15,0,0,0-3,.82c-1.1-1.18-2.35-2.24-3.39-3.45a10.11,10.11,0,0,0,.8-2.72,10.6,10.6,0,0,0-1.84-6.06,3.6,3.6,0,0,1-.62-3.06M124.15,80.58c2.16-2.28,4.43-4.41,6.59-6.66,2,2,4,4,6.06,6,.66.64.06,1.72-.68,2-.61.08-1.15-.33-1.71-.53a7.73,7.73,0,0,0-7,0,7.67,7.67,0,0,1-1.62.81c-.6-.47-1.1-1.07-1.66-1.59m-1.35,1.27c2.93,2.84,5.76,5.77,8.66,8.62C136,95,140.49,99.53,145,104q-3.89,3.93-7.82,7.82a1.38,1.38,0,0,1-2.13.12c-.64-.68.06-1.52.26-2.22.24-.51-.18-1-.52-1.33q-7.85-7.82-15.64-15.64a7.37,7.37,0,0,0-1.46-1.28c-.8-.18-1.42.54-2.19.58a1.23,1.23,0,0,1-1.08-1.28,2,2,0,0,1,.66-1.23c2.55-2.58,5.15-5.11,7.68-7.73m10.41,3.2a1.18,1.18,0,0,1,.9-1.56c.52-.08.94.32,1.3.66,2.15,2.15,4.31,4.33,6.48,6.46.38.42.92.8,1,1.42a1.09,1.09,0,0,1-1.16,1.16c-.84,0-1.48-.66-2.23-.94a4,4,0,0,0-3.57,0c-.58-.58-1.16-1.18-1.76-1.72a5.29,5.29,0,0,0,.28-2.73,16.88,16.88,0,0,0-1.2-2.79m38.21,1.55a3.44,3.44,0,0,1,2-1A2.24,2.24,0,0,1,175.87,88c-.18,1.2-1.18,2.15-1.1,3.41a5,5,0,0,0,1.49,2.1q15.3,15.25,30.55,30.52c.56.5,1.11,1.16,1.91,1.16,1.2,0,2.12-.9,3.25-1.1a2.24,2.24,0,0,1,2.46,2.39,3.86,3.86,0,0,1-1.24,2.3c-5.13,5.1-10.23,10.25-15.36,15.36a3.65,3.65,0,0,1-2.47,1.26,2.29,2.29,0,0,1-2.26-1.92c-.14-1.4,1.16-2.43,1.12-3.83a3.05,3.05,0,0,0-1-1.68q-13.44-13.4-26.85-26.83c7.4,13.75,14.86,27.45,22.26,41.2a5.06,5.06,0,0,1,.32.66c-.54.49-1.06,1-1.57,1.57-14.83-7.3-29.63-14.68-44.43-22-2.34-1.16-4.65-2.52-7.28-2.83-.88-.13-1.48.59-2.12,1.05a2.61,2.61,0,0,1-2.35.58,2.35,2.35,0,0,1-1.36-2.65,4.38,4.38,0,0,1,1.22-1.84c4.79-4.77,9.55-9.55,14.34-14.3,7.46,3.65,14.94,7.22,22.43,10.87a5.52,5.52,0,0,1,.71.6l.34-.42-.28,0c-3.93-7.48-8.06-14.86-12-22.34,4.95-4.91,9.84-9.84,14.77-14.75M145.22,90a1.19,1.19,0,0,1,1.86-.18c2,2,4.07,4.07,6.1,6.11q-3.41,3.45-6.86,6.84A12.33,12.33,0,0,1,144.7,101a9.86,9.86,0,0,0,1.54-3.57A9,9,0,0,0,145.5,92c-.22-.64-.7-1.38-.28-2m-33.49,3a3.06,3.06,0,0,1,1.41-1,1.15,1.15,0,0,1,1.38.88c.14.7-.38,1.27-.52,2s.36.92.68,1.28c5.33,5.33,10.63,10.65,16,16a3,3,0,0,0,1.26.88,15.18,15.18,0,0,0,1.79-.62,1.18,1.18,0,0,1,1.22,1.45,2.81,2.81,0,0,1-.88,1.32q-3.89,3.9-7.78,7.76a2,2,0,0,1-1.74.78,1.52,1.52,0,0,1-.83-.84c-.2-.88.73-1.59.51-2.47a4.74,4.74,0,0,0-.73-.88c-2.44-2.41-4.85-4.87-7.3-7.28-.86.87-1.72,1.74-2.6,2.59-.6-.58-1.2-1.16-1.75-1.77.87-.86,1.73-1.74,2.61-2.6-2.16-2.11-4.29-4.27-6.42-6.4a8.19,8.19,0,0,0-1.4-1.24c-1-.32-1.92,1.06-2.85.3a1.4,1.4,0,0,1,.1-2.17c2.61-2.66,5.26-5.25,7.88-7.88" fill="#fff"/><path d="M101.51,103.32a1.25,1.25,0,0,1,1.78.54c.28.82-.46,1.52-.48,2.31,0,.42.32.72.58,1q8.28,8.3,16.56,16.56c1,1.08,2.27-.78,3.35,0a1.46,1.46,0,0,1-.14,2.17c-2.6,2.62-5.21,5.19-7.78,7.8a3.9,3.9,0,0,1-1.42,1.06,1.17,1.17,0,0,1-1.49-.9c-.12-.79.59-1.41.55-2.19a2.38,2.38,0,0,0-.55-.88Q104.61,123,96.8,115.15a5,5,0,0,0-1.57-1.28c-.72,0-1.32.5-2,.58a1.15,1.15,0,0,1-1.13-1.09,2.06,2.06,0,0,1,.79-1.54q3.9-3.88,7.76-7.78a5.12,5.12,0,0,1,.88-.72M87.09,117.59c1.2-1.16,2.35-2.36,3.55-3.54,2.09,2,4.15,4.15,6.24,6.21a4.44,4.44,0,0,1,1,1.28A1.43,1.43,0,0,1,96,123.15c-1-.44-1.76-1.22-2.7-1.73A8.26,8.26,0,0,0,88.05,120c-.54-.56-1.14-1.08-1.62-1.68a2.9,2.9,0,0,1,.66-.77m-8.7,8.69c2.23-2.19,4.43-4.41,6.64-6.62q6.3,6.32,12.61,12.61c2.32,2.29,4.57,4.63,6.9,6.88.66.74,1.54.12,2.26-.14a1.14,1.14,0,0,1,1.53,1.08,2,2,0,0,1-.63,1.32c-2.72,2.69-5.39,5.38-8.08,8.08a2,2,0,0,1-1.42.71A1.1,1.1,0,0,1,97,149.07c0-.64.54-1.16.54-1.8s-.42-.88-.74-1.24c-6.36-6.32-12.66-12.7-19-19,.2-.26.38-.5.6-.74m149.72-2q3.72,3.65,7.37,7.36a1.46,1.46,0,0,1-.82,2.37c-1,.14-1.7-.61-2.44-1.11-2-1.36-4.31-2.64-6.78-2.22a15.08,15.08,0,0,1-1.84-1.91c1.54-1.48,3-3,4.51-4.49m-151.75,4c.73.28,1.19,1.11,1.79,1.63-.32,2.32.78,4.49,2.08,6.31a9.7,9.7,0,0,1,1.07,1.77,1.41,1.41,0,0,1-1.47,1.7c-.5,0-.84-.42-1.16-.72-2.18-2.19-4.37-4.35-6.54-6.54,1.43-1.36,2.77-2.82,4.23-4.15m44.38,11.25a24.47,24.47,0,0,1,12.37-.58c6.95,1.48,13.09,5.55,18,10.59,4.8,4.87,8.64,11,9.93,17.78a24,24,0,0,1-.52,11.29,27.37,27.37,0,0,1-5.38,9.82c-1-1.1-2.18-2.12-3.18-3.24a8.36,8.36,0,0,1,.44-1.51,5,5,0,0,0-1.33-5l-29.61-29.62a5.36,5.36,0,0,0-3.33-1.76,6.67,6.67,0,0,0-3.09.6c-.4.22-.66-.28-.92-.48-.8-.86-1.68-1.64-2.47-2.51,0-.06,0-.18,0-.24a26.49,26.49,0,0,1,9.11-5.13m26.9-1.1a18.6,18.6,0,0,1,2.61,1.2c3.21,1.56,6.4,3.17,9.64,4.75a3.79,3.79,0,0,1,.77.58c2.72,2.75,5.45,5.46,8.18,8.2a14.3,14.3,0,0,0,5.35,3.55,6.49,6.49,0,0,0,4.43,0,3.65,3.65,0,0,1,2.25-.28,2.22,2.22,0,0,1,1.38,1.87,4.52,4.52,0,0,1-1.5,2.78q-3.66,3.71-7.38,7.36a4.33,4.33,0,0,1-2.33,1.31,2,2,0,0,1-2.22-2.47,9.1,9.1,0,0,0,.68-4,12.49,12.49,0,0,0-3.05-6q-8.12-8.15-16.26-16.28c-.84-.88-1.76-1.68-2.55-2.62M208.48,144c1.5-1.5,3-3,4.51-4.51.66.54,1.24,1.18,1.86,1.78a8.75,8.75,0,0,0,1.45,5.64c.54,1,1.32,1.78,1.8,2.77a1.8,1.8,0,0,1-.1,1.5,25.7,25.7,0,0,1,6.48,6.3,16.59,16.59,0,0,1,3.35,9.8,14.4,14.4,0,0,1-3.57,9.16,18.81,18.81,0,0,1-1.75-1.82,5.9,5.9,0,0,0,.28-2.19,4.87,4.87,0,0,0-1.6-2.3q-7.91-7.86-15.76-15.74a3.13,3.13,0,0,0-1.88-1,4.85,4.85,0,0,0-2,.33c-.62-.57-1.24-1.19-1.83-1.79a13.93,13.93,0,0,1,9.63-3.55,15.9,15.9,0,0,1,4,.58c-1.6-1.66-3.29-3.22-4.83-4.91M104.09,155.67a28.21,28.21,0,0,1,4.88-8.34c1,1,2.1,2,3.1,3.09.19.64-.32,1.24-.42,1.88a5,5,0,0,0,1.41,4.83q14.55,14.56,29.13,29.12a6.24,6.24,0,0,0,3.51,2.2,7.44,7.44,0,0,0,3.71-.68c1.08,1.08,2.16,2.13,3.23,3.21a27,27,0,0,1-8,4.81,24.4,24.4,0,0,1-13.9,1c-7-1.54-13.17-5.75-18.1-10.88-4.54-4.76-8.22-10.61-9.51-17.13a23.86,23.86,0,0,1,1-13.07m90.67,5.77a14.24,14.24,0,0,1,3.57-8.2c.58.59,1.2,1.19,1.79,1.79a4,4,0,0,0-.35,2.23,3.25,3.25,0,0,0,1,1.7c5.27,5.25,10.5,10.51,15.76,15.76a5.22,5.22,0,0,0,2.1,1.56,4.3,4.3,0,0,0,2.39-.3c.6.6,1.22,1.2,1.8,1.83a14.32,14.32,0,0,1-9,3.54,16.07,16.07,0,0,1-9-2.68,22.85,22.85,0,0,1-5.18-4.47,9.94,9.94,0,0,1-.56,7.15,23.26,23.26,0,0,1-4.41,5.6c-.6-.6-1.22-1.22-1.84-1.81a3.39,3.39,0,0,0,.54-2.82,8,8,0,0,0-1.91-2.47L187,175.36a5.32,5.32,0,0,0-3.08-1.84,3.45,3.45,0,0,0-2,.66l-1.84-1.81c2.4-2.42,5.13-4.91,8.64-5.35a9.26,9.26,0,0,1,7.8,2.73,15.48,15.48,0,0,1-1.79-8.31m-105.16,7a3.66,3.66,0,0,1,2.22-1.08A2.25,2.25,0,0,1,94.07,170c-.3,1-1,1.92-1.08,3a4,4,0,0,0,1.52,2.27L125.23,206a3,3,0,0,0,1.7,1c1.15,0,2-.86,3.15-1.12a2.25,2.25,0,0,1,2.57,2.26,3.76,3.76,0,0,1-1.15,2.35L116,226a3.72,3.72,0,0,1-2.5,1.24,2.24,2.24,0,0,1-2.21-2.32c.12-1.19,1.11-2.15,1.14-3.39a3.31,3.31,0,0,0-1.08-1.81c-4.59-4.61-9.2-9.18-13.77-13.77-.18-.14-.42-.54-.68-.26-1.59,1.54-3.13,3.16-4.72,4.69-1.08-1.08-2.16-2.15-3.24-3.25q2.33-2.43,4.75-4.75c0-.08,0-.26,0-.34-4.33-4.25-8.58-8.56-12.89-12.84a5.22,5.22,0,0,0-2.19-1.62c-1.26-.08-2.23.9-3.41,1.12a2.26,2.26,0,0,1-2.38-2.88,5.56,5.56,0,0,1,1.76-2.39c5-5,10-10,15-15m89.08,5.38c2.39,2.24,4.65,4.63,7,6.93l13.45,13.46a2.56,2.56,0,0,0,1,.7c.86.08,1.54-.76,2.4-.6a1.31,1.31,0,0,1,.94,1.26c0,.78-.66,1.32-1.14,1.83-2.81,2.78-5.59,5.59-8.4,8.36a1.38,1.38,0,0,1-2.16-.42c-.55-.93,1-1.93.17-2.79q-8.68-8.65-17.34-17.34a7.09,7.09,0,0,0-1.28-1.11c-.86-.24-1.54.48-2.33.58a1.28,1.28,0,0,1-1.18-1.24,2.33,2.33,0,0,1,.9-1.7c2.65-2.63,5.3-5.28,7.94-7.92m-17.8,17.78c2.38-2.33,4.69-4.75,7.1-7l6.43,6.44c.72.7,0,1.76-.78,2.08a3,3,0,0,1-1.46-.46,8.7,8.7,0,0,0-6-.82,11.93,11.93,0,0,0-3.51,1.63c-.6-.61-1.2-1.23-1.82-1.83m-9.69,9.71c2.75-2.79,5.54-5.52,8.3-8.3,4.46,4.41,8.87,8.9,13.36,13.31,3.43,3.41,6.83,6.87,10.28,10.26-2.68,2.75-5.43,5.42-8.1,8.16a4.16,4.16,0,0,1-1.42.87c-.5-.18-1.12-.36-1.28-.91-.3-.94.68-1.68.56-2.6a9,9,0,0,0-1.69-1.95l-14.55-14.55a16,16,0,0,0-2.59-2.35c-1-.2-1.94,1.1-2.91.4a1.51,1.51,0,0,1,0-2.34m19.35-4.94a1.24,1.24,0,0,1,1.3-1.64,2.17,2.17,0,0,1,1,.64c2.1,2.12,4.21,4.19,6.29,6.3a6,6,0,0,1,1.83,2.3c-.26.44-.54,1-1.13,1.1-1,.1-1.7-.68-2.58-1a4.25,4.25,0,0,0-3.85,0c-.64-.64-1.26-1.28-1.89-1.9a4.19,4.19,0,0,0,.31-3,24.47,24.47,0,0,0-1.25-2.81m12.83,5.2a1.25,1.25,0,0,1,1.93-.14c2.16,2.18,4.35,4.33,6.48,6.53-2.45,2.39-4.8,4.91-7.32,7.24-.57-.62-1.19-1.22-1.79-1.84a9.11,9.11,0,0,0,1-9.47c-.26-.72-.82-1.6-.3-2.32" fill="#fff"/><path d="M55,209.47a6.55,6.55,0,0,1,2.43-.79c1.06.2,1.72,1.13,2.46,1.83q15,15,30,30a4.12,4.12,0,0,1,1.38,2.11,6.33,6.33,0,0,1-.86,2.37Q72.72,245,55,245c0-11.83,0-23.68,0-35.51" fill="#e66d2d"/><path d="M147.88,208.94a16,16,0,0,1,10,2.91,23.83,23.83,0,0,1,6.06,5.52,15.48,15.48,0,0,1,3.18,9.1A14.21,14.21,0,0,1,163,236.66c-.62-.59-1.22-1.19-1.82-1.81a3.64,3.64,0,0,0,.66-2.19,5.81,5.81,0,0,0-1.84-3L146.58,216.2a5.64,5.64,0,0,0-3.31-2,3.39,3.39,0,0,0-2,.66c-.58-.64-1.37-1.12-1.73-1.91a12.94,12.94,0,0,1,8.36-4Z" fill="#fff"/></svg>