<svg id="Layer_1" data-name="Layer 1" xmlns="http://www.w3.org/2000/svg" viewBox="0 0 300 300"><path d="M91.45,109.2H58.56V112H69v54.38c0,16.23-4.55,21-14.73,21a6.81,6.81,0,0,1-7.5-6,5,5,0,0,1,0-1.34c0-5.92-.32-9.57-5.76-9.57s-6,5.52-6,7.18c0,7.5,3.33,13.22,18.29,13.22,17.85,0,27.5-6,27.5-25.88V112h11Z" fill="#3a2206"/><path d="M135,109.2H102.11V112h9.57V174.9a18.46,18.46,0,0,1-.86,7.6,6.59,6.59,0,0,1-4.11,3.7,19.51,19.51,0,0,1-6.2,1v2.63h34.9v-2.63a23,23,0,0,1-6.69-.94,6.7,6.7,0,0,1-4.11-3.7,11.55,11.55,0,0,1-.86-5.13V155.93h8.71c25.21,0,32.31-9.94,32.31-23.45S160.5,109.2,135,109.2m-4.52,43.53h-6.61V112.4h6c19.46-.08,24.06,7.85,24.06,20.82S146.25,153,130.77,153" fill="#3a2206"/><path d="M255.45,182.28a16.66,16.66,0,0,1-.7-5.52V111.84h8.69V109.2H242.56L217.7,170.75a.59.59,0,0,1-.5.37.68.68,0,0,1-.62-.37s-26.14-60.81-26.43-61.55h-23v2.55h10.09V180a8.62,8.62,0,0,1-1.36,4.12,7.63,7.63,0,0,1-3.71,2.63,18.14,18.14,0,0,1-4.81.46v2.63h22.8v-2.63a13.05,13.05,0,0,1-4.11-.62,7.37,7.37,0,0,1-4.12-2.59,8.7,8.7,0,0,1-1.4-4.12l-.25-5.68V120.32h1.36S211.4,189,211.4,189.81h2.88l28.08-68.92h.74v55.54a20.52,20.52,0,0,1-.7,5.68,6.65,6.65,0,0,1-3.5,3.75,17.43,17.43,0,0,1-5.81,1v2.63H265v-2.63a17.41,17.41,0,0,1-5.93-1.07,6.41,6.41,0,0,1-3.54-4.12" fill="#3a2206"/></svg>