<svg id="Layer_1" data-name="Layer 1" xmlns="http://www.w3.org/2000/svg" viewBox="0 0 300 300"><defs><style>.cls-1{fill:#134b97;}</style></defs><title>KR_Light_bg</title><path class="cls-1" d="M95.34,139V132.8H84V171h11.6V149.84q3-6.65,10.06-6.64a19.53,19.53,0,0,1,4.1.41v-11a10.76,10.76,0,0,0-3.63-.54Q100.26,132.09,95.34,139Z"/><path class="cls-1" d="M146.87,166a20.47,20.47,0,0,0,0-28.16,19.74,19.74,0,0,0-27.83,0,20.45,20.45,0,0,0,0,28.08,19.74,19.74,0,0,0,27.83.06Zm-20.05-7.5a10.23,10.23,0,0,1,0-13.14,8.31,8.31,0,0,1,12.28,0,9.45,9.45,0,0,1,2.4,6.54,9.56,9.56,0,0,1-2.4,6.58,8.35,8.35,0,0,1-12.28,0Z"/><path class="cls-1" d="M220.09,132.09a18.52,18.52,0,0,0-13.66,5.62,19.29,19.29,0,0,0-5.59,14.16q0,8.74,5.36,14.28t14,5.54a21.17,21.17,0,0,0,10-2.18,27.14,27.14,0,0,0,7.59-6l-8.4-4.7a12.07,12.07,0,0,1-8.47,3q-7.49,0-8.81-6.64h26.29c0-.31,0-.62.07-.93s.08-.76.1-1.09,0-.6,0-.82A20.88,20.88,0,0,0,233.4,138,16.91,16.91,0,0,0,220.09,132.09Zm-7.86,16.16a9.34,9.34,0,0,1,2.88-4.91,7.09,7.09,0,0,1,4.74-1.73,6.57,6.57,0,0,1,4.66,2,8,8,0,0,1,2.49,4.63Z"/><path class="cls-1" d="M265.59,132.09q-5.89,0-10.8,6.95V132.8H243.47V171h11.59V149.84q3-6.65,10.06-6.64a19.53,19.53,0,0,1,4.1.41v-11A10.76,10.76,0,0,0,265.59,132.09Z"/><path class="cls-1" d="M72.86,125.59c.17-1.31.27-2.64.31-4h0a27.12,27.12,0,0,1,54.23,0h10.92A38,38,0,0,0,62.27,121h0A24.9,24.9,0,0,1,62,124.2a26.48,26.48,0,0,1-6,14.09,24,24,0,0,1-13,7.33V120.23H30.78V171H43.05V156.78a40.44,40.44,0,0,0,10.41-3.23L64.52,171H79.19L63,146.8c.41-.42.81-.85,1.21-1.29A37.42,37.42,0,0,0,72.86,125.59Z"/><path class="cls-1" d="M196,182.19V132.8h-11v3.25a13.25,13.25,0,0,0-9.86-4,17.19,17.19,0,0,0-12.74,5.53,18.87,18.87,0,0,0-5.38,13.71,18.27,18.27,0,0,0,5.51,13.58,17.49,17.49,0,0,0,12.6,5.43,16.52,16.52,0,0,0,10-3.17v15h0a23.31,23.31,0,0,1-46.61,0H127.5a34.22,34.22,0,0,0,68.43,1h0v-.52c0-.16,0-.32,0-.49Zm-13.33-24.38a8.61,8.61,0,0,1-12.33,0,9.94,9.94,0,0,1,0-12.93,8.6,8.6,0,0,1,12.32,0,10,10,0,0,1,0,12.93Z"/><path class="cls-1" d="M204.48,200a4.2,4.2,0,0,1-8.39,0,4.2,4.2,0,0,1,8.39,0Zm-7.34,0a3.16,3.16,0,0,0,3.18,3.26,3.13,3.13,0,0,0,3.12-3.23,3.15,3.15,0,1,0-6.3,0Zm2.51,2.14h-1V198a8.24,8.24,0,0,1,1.57-.12,2.5,2.5,0,0,1,1.42.3,1.13,1.13,0,0,1,.4.89,1.07,1.07,0,0,1-.85,1v0a1.22,1.22,0,0,1,.75,1,2.78,2.78,0,0,0,.3,1h-1a3.78,3.78,0,0,1-.33-1c-.07-.45-.32-.65-.84-.65h-.45Zm0-2.32h.44c.53,0,.95-.17.95-.59s-.27-.63-.87-.63a2.29,2.29,0,0,0-.52,0Z"/></svg>