<svg id="Layer_1" data-name="Layer 1" xmlns="http://www.w3.org/2000/svg" viewBox="0 0 300 300"><defs><style>.cls-1{fill:#fff;}.cls-2{fill:#11329b;}.cls-3{fill:#c92a39;fill-rule:evenodd;}</style></defs><path class="cls-1" d="M251.24,167.74,218.74,82.5a23.77,23.77,0,0,0-5.43-9.14,13.46,13.46,0,0,0-9.76-4.13H96a13.45,13.45,0,0,0-9.76,4.13,23.73,23.73,0,0,0-5.42,9.11l-32.52,85.3c-2.72,7.71-2.57,12.08-.73,21.31l0,.1c.34,1.14,8.24,28.09,8.41,28.64l0,.05c1.89,6.06,4.05,12.93,15.55,12.93H228c11.5,0,13.66-6.87,15.55-12.93l0-.05c.17-.55,8.07-27.5,8.41-28.64l0-.1c1.84-9.23,2-13.6-.73-21.34"/><path class="cls-2" d="M262.52,165.8v0l-32.8-86C224.94,65.88,216.06,58,202.6,58H97c-13.46,0-22.34,7.86-27.1,21.74l-32.8,86v0A44.15,44.15,0,0,0,36.59,191c1.24,4.72,8.41,29,8.41,29,3.65,13.55,10.68,22,26.63,22H227.94c16,0,23-8.5,26.63-22,0,0,7.18-24.25,8.41-29a44.2,44.2,0,0,0-.46-25.16m-11.65,23s-8.23,28.08-8.4,28.62l0,.06c-1.87,6-3.8,12.1-14.47,12.1H71.61c-10.67,0-12.61-6.14-14.48-12.1v-.06c-.18-.54-8.4-28.62-8.4-28.62-1.8-9-1.95-13.25.68-20.71L81.9,82.87a22.66,22.66,0,0,1,5.16-8.7,12.37,12.37,0,0,1,9-3.8H203.54a12.39,12.39,0,0,1,9,3.8,22.66,22.66,0,0,1,5.16,8.7l32.5,85.27c2.63,7.45,2.48,11.71.69,20.71"/><path class="cls-3" d="M200.52,82.72l-35.64,0-15.14,48.55L134.57,82.74l-35.64,0L70,183.44h38.17l10.75-50.82,16,50.7H164.6l16-50.7,10.75,50.82H229.5Z"/><path class="cls-2" d="M201.33,195.61a12.39,12.39,0,0,0-7.72,2.35c-2.44,1.86-3.16,5.23-3.23,8.6,0,1.37-.14,5.65,2.78,8.28a12.35,12.35,0,0,0,8.17,2.65h.09a12.33,12.33,0,0,0,8.17-2.65c2.92-2.63,2.8-6.91,2.78-8.28-.08-3.37-.79-6.74-3.23-8.6a12.4,12.4,0,0,0-7.72-2.35h-.09Zm4.9,10.93c0,4.24-1.64,6.45-4.87,6.51s-4.86-2.27-4.86-6.51,1.64-6.45,4.86-6.51,4.87,2.26,4.87,6.51m-42.81-10.75h4.08v4.41h-4.09V211c0,2.81,2.31,1.95,4.09,1.84v4.39c-5.71.79-9.1-.26-9.85-3.27v0a11,11,0,0,1-.25-2.29V200.2h-3.52v-4.42h3.53v-5.34h6c0,2.12,0,4.81,0,5.34M214,217.3V195.78h6v1.57a14.15,14.15,0,0,1,6.41-1.74h0c7,0,6.76,4.6,6.76,7.44V217.3h-6v-15c-.07-1.24-.24-2.24-2.87-2.24-3.45,0-4.37,1.22-4.33,1.22V217.3Zm-44.54,0V190.44h6v6.91a14.15,14.15,0,0,1,6.41-1.74h0c7,0,6.75,4.6,6.75,7.44V217.3h-6v-15c-.06-1.24-.23-2.24-2.87-2.24-3.44,0-4.36,1.22-4.32,1.22V217.3Zm-103.33,0,5-26.85h8l3.67,15,3.66-15h8l5,26.85H93l-3.07-16.46-4,16.46H79.83l-4-16.46-3.07,16.46ZM133.87,201c-1.69-.38-6.66-.54-6.66,3.23v13.05h-6V195.8h6v2.13a6.43,6.43,0,0,1,6.66-1.48Zm19,1a6.17,6.17,0,0,0-1-3.56c-1.82-2.39-5.65-2.63-8.12-2.67a16.24,16.24,0,0,0-8,2l1.26,4.05a8.66,8.66,0,0,1,6-1.79c3.07.09,3.84,1.07,3.84,2.17V203a31.18,31.18,0,0,0-7.49,1.18,10.33,10.33,0,0,0-2.25.92A6.64,6.64,0,0,0,140,217.5a10.94,10.94,0,0,0,6.81-1.92v1.74h6V202Zm-6,9.77a8.8,8.8,0,0,1-5.24,1.39,2.59,2.59,0,0,1-2.26-2.72,2.71,2.71,0,0,1,1.17-1.91c.29-.22,1.73-1.14,6.33-1.32v4.56ZM119.2,202a6.17,6.17,0,0,0-1-3.56c-1.81-2.39-5.64-2.63-8.11-2.67a16.16,16.16,0,0,0-8,2l1.26,4.05a8.64,8.64,0,0,1,6-1.79c3.06.09,3.83,1.07,3.83,2.17V203a31.07,31.07,0,0,0-7.48,1.18,10.41,10.41,0,0,0-2.26.92,6.64,6.64,0,0,0,2.93,12.44,10.9,10.9,0,0,0,6.81-1.92v1.74h6V202Zm-6,9.77A8.77,8.77,0,0,1,108,213.2a2.57,2.57,0,0,1-2.26-2.72,2.67,2.67,0,0,1,1.16-1.91c.29-.22,1.73-1.14,6.33-1.32v4.56Z"/><path class="cls-2" d="M265,229.69a5.21,5.21,0,1,1-5.19-5.07A5.09,5.09,0,0,1,265,229.69Zm-9.11,0a3.93,3.93,0,0,0,3.95,4.05,3.88,3.88,0,0,0,3.86-4,3.91,3.91,0,1,0-7.81,0Zm3.12,2.66h-1.18v-5.07a10.69,10.69,0,0,1,1.95-.15,3.11,3.11,0,0,1,1.76.37,1.37,1.37,0,0,1,.49,1.11,1.29,1.29,0,0,1-1,1.17v.06a1.49,1.49,0,0,1,.93,1.24,4.25,4.25,0,0,0,.37,1.27H261a4.34,4.34,0,0,1-.41-1.24c-.09-.56-.4-.8-1.05-.8H259Zm0-2.88h.55c.65,0,1.18-.21,1.18-.74s-.34-.77-1.08-.77a2.87,2.87,0,0,0-.65.06Z"/></svg>