<svg id="Layer_1" data-name="Layer 1" xmlns="http://www.w3.org/2000/svg" viewBox="0 0 300 300"><rect x="187.04854" y="186.37134" width="59.98872" height="19.97742" fill="#e7933e"/><path d="M129.23251,95.68284s-19.94921,61.25847-22.009,67.69188c-2.11626-6.46163-21.92439-67.69188-21.92439-67.69188H50V206.377H74.4921V130.78442c3.97856,13.06434,22.912,75.59256,22.912,75.59256h18.56659s19.921-63.26185,23.87134-75.87472V206.377h24.605V95.68284Z" fill="#2b66a5"/><path d="M224.37924,174.77427c9.33973,0,18.28442-1.58014,25.62076-5.079l-7.6185-17.88939a25.26737,25.26737,0,0,1-13.20542,3.66817c-12.97968,0-23.73025-6.46163-23.73025-21.24718,0-14.81377,10.72235-21.24718,23.73025-21.24718a25.746,25.746,0,0,1,13.20542,3.58352L250,98.702c-7.33634-3.44244-16.281-5.079-25.62077-5.079-26.46728,0-43.31264,15.18059-43.31264,40.60384,0,25.36682,16.84537,40.54741,43.31265,40.54741Z" fill="#2b66a5"/></svg>