<svg id="Layer_1" data-name="Layer 1" xmlns="http://www.w3.org/2000/svg" xmlns:xlink="http://www.w3.org/1999/xlink" viewBox="0 0 300 300"><defs><linearGradient id="linear-gradient" x1="79.19375" y1="14142.30278" x2="251.33172" y2="14133.60894" gradientTransform="matrix(1, 0, 0, -1, 0, 14288)" gradientUnits="userSpaceOnUse"><stop offset="0" stop-color="#0064e1"/><stop offset="0.4" stop-color="#0064e1"/><stop offset="0.83" stop-color="#0073ee"/><stop offset="1" stop-color="#0082fb"/></linearGradient><linearGradient id="linear-gradient-2" x1="61.01422" y1="14100.18181" x2="61.01422" y2="14163.64682" gradientTransform="matrix(1, 0, 0, -1, 0, 14288)" gradientUnits="userSpaceOnUse"><stop offset="0" stop-color="#0082fb"/><stop offset="1" stop-color="#0064e0"/></linearGradient></defs><path id="Logo0" d="M52.00306,176.48143c0,9.54583,2.09521,16.87473,4.83377,21.30859a16.48583,16.48583,0,0,0,14.40569,8.26784c7.042,0,13.48414-1.74746,25.89894-18.91779,9.94575-13.76234,21.665-33.08,29.55035-45.19056l13.35374-20.51745c9.27632-14.2492,20.01321-30.08937,32.32369-40.82626,10.05007-8.76339,20.89129-13.63194,31.80206-13.63194,18.3179,0,35.76644,10.61518,49.12019,30.52407C267.90583,119.30207,275,146.7659,275,175.10781c0,16.84866-3.32105,29.22867-8.97205,39.00924-5.45972,9.4589-16.101,18.90909-34.00159,18.90909V206.05786c15.32724,0,19.15253-14.084,19.15253-30.2024,0-22.96911-5.3554-48.45945-17.15293-66.673-8.37217-12.919-19.22208-20.813-31.15871-20.813-12.91036,0-23.29949,9.7371-34.97531,27.09869-6.20739,9.22416-12.58,20.46529-19.735,33.1496l-7.87662,13.95361c-15.82278,28.055-19.83064,34.445-27.742,44.99061-13.86667,18.46571-25.70768,25.46425-41.29573,25.46425-18.49179,0-30.185-8.007-37.427-20.07406C27.90378,203.11935,25,190.2177,25,175.51642Z" fill="#0081fb"/><path id="Logo1" d="M46.29121,99.40187c12.38-19.083,30.24586-32.428,50.73723-32.428,11.86709,0,23.66462,3.51231,35.98379,13.57108,13.47544,10.9977,27.83766,29.107,45.75566,58.9529l6.42475,10.71081c15.5098,25.83808,24.334,39.131,29.49819,45.39921,6.64209,8.05049,11.2933,10.45,17.33551,10.45,15.32724,0,19.15253-14.084,19.15253-30.2024L275,175.10779c0,16.84866-3.32105,29.22868-8.972,39.00924-5.45973,9.4589-16.101,18.9091-34.0016,18.9091-11.12811,0-20.98692-2.41689-31.889-12.7017-8.38086-7.894-18.17882-21.91715-25.71637-34.52322l-22.4214-37.453c-11.24983-18.79607-21.56941-32.81054-27.54208-39.157-6.42474-6.82466-14.68389-15.06642-27.86374-15.06642-10.66734,0-19.72632,7.48539-27.30734,18.93518Z" fill="url(#linear-gradient)"/><path id="Logo2" d="M96.59375,94.12471c-10.66734,0-19.72632,7.48539-27.30735,18.93518-10.71949,16.17923-17.28334,40.27855-17.28334,63.42154,0,9.54583,2.09521,16.87473,4.83377,21.30859L33.81555,212.95208C27.90374,203.11935,25,190.2177,25,175.51642c0-26.73355,7.3376-54.5973,21.29121-76.11455,12.38-19.083,30.24586-32.428,50.73723-32.428Z" fill="url(#linear-gradient-2)"/></svg>