<svg id="Layer_1" data-name="Layer 1" xmlns="http://www.w3.org/2000/svg" viewBox="0 0 300 300"><path id="BackgroundWhite" d="M150,254.761c10.62806-14.09965,25.408-16.98571,43.69936-18.72665,21.66047-2.05635,31.34065-4.26218,43.72694-18.04064,7.74983-8.631,13.16535-22.66229,13.16535-35.36936,0-8.87806-.46076-16.198-4.83865-28.91289C236.33511,126.46868,233.36423,116.2458,255,91.255L209.88829,46.17C200.18053,54.25667,179.15253,68.37155,150,45.239c-29.35388,23.35736-49.71936,8.80353-59.88871.931L45,91.25455c21.51882,24.99083,19.53165,35.27424,9.247,62.45647-4.60806,12.24794-4.83906,20.35271-4.83906,28.91288,0,12.7153,4.95394,26.69677,13.19377,35.36936,12.78982,13.503,22.43994,15.97277,43.69853,18.04064,18.95558,1.848,33.07005,4.85554,43.69976,18.72708" fill="#fff"/><path id="BackgroundBlack" d="M150,249.20749c10.85823-12.24835,27.3383-14.98823,43.92995-16.64805,20.8287-2.08724,28.95034-4.24242,40.47277-16.65094,7.49081-8.05124,12.47317-20.57794,12.47317-33.285a86.2242,86.2242,0,0,0-5.30024-29.61083c-10.77383-29.13977-8.35182-41.15876,8.55524-61.51312L209.42713,50.79331S183.3019,75.07467,150,49.41637C116.93037,75.0722,90.5729,50.79331,90.5729,50.79331L49.87,91.49626c17.31182,20.35435,19.789,32.59446,8.554,61.51352A81.24832,81.24832,0,0,0,53.0949,182.6206c0,12.474,4.92553,25.58294,12.50282,33.285,11.95435,12.1697,19.70294,14.34176,40.47276,16.65093,16.64929,1.85955,33.06923,4.40261,43.92952,16.651" fill="#221f20"/><path id="BadgeWhite" d="M150,239.26915c16.90953-10.86936,25.43595-10.64536,42.77658-13.17689,15.03847-2.21942,24.89612-3.40612,35.8363-14.33311,15.52559-15.51118,14.00083-37.52454,4.63935-62.43876-10.86482-28.91618-1.26906-45.80183,7.85977-57.365L208.73823,59.57627s-25.43594,20.11552-58.73783-1.61618c-33.30065,21.73418-58.73658,1.61618-58.73658,1.61618L58.8567,91.95868c9.04523,11.56317,19.01241,28.21535,7.89353,57.365-9.53483,25.004-10.62889,46.92429,4.63729,62.43547C82.24781,222.76479,91.984,223.91238,107.223,226.09474c17.80225,2.529,25.89713,2.30464,42.777,13.17441" fill="#fff"/><path id="BadgeRed" d="M150,228.863c18.291-10.14423,29.44241-9.11153,49.95035-12.25083,35.05682-5.39041,32.9247-34.72865,30.70776-46.12671a92.1195,92.1195,0,0,0-2.39154-9.62129c-2.85271-8.23942-9.27458-24.00589-8.20894-39.76618H79.94318c1.32464,16.46071-5.70377,33.23435-8.46877,41.05211-.60612,1.74671-1.38394,4.90865-1.78623,6.79329-2.21818,9.97582-6.19336,41.83159,30.36188,47.66012C121.94194,220.11138,131.70735,218.71879,150,228.863" fill="#d73831"/><path d="M88.20977,81.513H82.16135v30.091h6.048v-9.81112c1.67094-.06588,11.52241.95653,11.75342-9.639C100.28065,80.40044,90.633,81.513,88.20977,81.513Zm0,15.30488V86.03749c1.211,0,6.16494-.679,6.19458,5.27759C94.43235,98.03261,88.20977,96.8179,88.20977,96.8179Z" fill="#221f20"/><polygon points="103.046 81.625 108.605 81.625 108.605 93.421 114.366 93.421 114.366 81.625 120.185 81.625 120.185 111.457 114.366 111.457 114.366 98.69 108.605 98.69 108.605 111.457 103.046 111.457 103.046 81.625" fill="#221f20"/><rect x="126.23459" y="81.60979" width="6.04923" height="29.84718" fill="#221f20"/><polygon points="138.304 81.559 144.325 81.559 144.325 106.729 150.835 106.729 150.835 111.4 138.304 111.4 138.304 81.559" fill="#221f20"/><polygon points="153.859 81.625 159.88 81.625 159.88 106.782 166.389 106.782 166.389 111.463 153.859 111.463 153.859 81.625" fill="#221f20"/><rect x="169.35994" y="81.62543" width="6.02041" height="29.83153" fill="#221f20"/><path d="M187.33265,81.513h-6.01958v30.091h6.01958v-9.81112c1.67135-.06588,11.52283.95653,11.75383-9.639C199.40394,80.40044,189.40629,81.513,187.33265,81.513Zm0,15.30488V86.03749c1.20976,0,6.16412-.679,6.1917,5.27759C193.52435,98.03261,188.22494,96.8179,187.33265,96.8179Z" fill="#221f20"/><path d="M210.06041,80.56473c8.49841,0,9.13129,5.39,9.01847,9.59865h-5.908c-.02759-6.58-6.48118-5.58312-6.41941-1.49842,0,2.26759,4.14688,4.653,7.60406,6.76406a10.37308,10.37308,0,0,1,5.27183,8.31271c.0593,2.93588-1.26288,8.44941-9.562,8.44941-8.49552,0-9.18482-6.31111-9.21571-9.89512h5.67659c0,7.31706,6.88677,6.43259,6.9403,1.65983,0,0,.40435-2.22971-3.37317-4.50265-4.25888-2.54141-9.06911-4.45035-8.95382-10.66759-.00827-1.71294.36562-8.22088,8.92085-8.22088" fill="#221f20"/><path d="M136.11571,136.02532c-19.67536-6.48941-33.76182,4.04147-41.16453,24.62764-5.27183,14.61477-10.08206,32.36553,5.8767,38.49794,9.99477,3.84836,26.96236,2.30918,34.71095-10.41106,6.19293-10.18911,9.24658-26.01652-3.1393-30.492-10.91794-3.94676-17.8607,1.93241-17.8607,1.93241s4.69494-15.52106,11.984-15.52106c4.72458,0,3.68653,6.79248,3.68653,6.79248l16.53606,1.218C147.78183,149.7,146.31347,139.3709,136.11571,136.02532Zm-17.45718,31.08946c5.53123,1.14471,3.62888,8.51859,1.69935,13.74224-1.95918,5.27718-5.87671,11.01018-10.65853,9.71106-4.49276-1.17888-2.50517-9.506-.17171-14.78853C111.57288,171.18261,114.53923,166.26,118.65853,167.11478Z" fill="#fff"/><path d="M207.69688,152.66967c1.041-2.96965-.4303-13.26129-10.62806-16.64435-19.06759-6.37453-33.67288,3.57823-41.16453,24.62764-5.24217,14.63123-10.05282,32.36553,5.87629,38.49794,9.99806,3.84836,26.93312,2.30918,34.68336-10.41106,6.22218-10.18911,9.27459-26.01652-3.11171-30.492-10.91753-3.94676-17.8607,1.93241-17.8607,1.93241s4.69782-15.52106,11.956-15.52106c4.75423,0,3.71576,6.79248,3.71576,6.79248Zm-28.08606,14.44511c5.53329,1.14471,3.63177,8.51859,1.671,13.74224-1.92995,5.27718-5.84542,11.01018-10.65565,9.71106-4.43635-1.17888-2.59411-9.506-.259-14.78853C172.38106,171.18261,175.52077,166.26,179.61082,167.11478Z" fill="#fff"/><g id="RegisteredTrademark"><path d="M243.28653,225.47626a6.89788,6.89788,0,1,0,6.90035,6.89747A6.89791,6.89791,0,0,0,243.28653,225.47626Zm0,12.47894a5.58291,5.58291,0,1,1,5.58395-5.58436A5.58555,5.58555,0,0,1,243.28653,237.9552Z" fill="#fff"/><path d="M246.43365,230.66079c0-1.53589-.87458-2.2927-2.78188-2.2927h-3.11418V236.374h1.26248V232.928h1.32505l2.17164,3.44606h1.34482l-2.31494-3.53871A2.049,2.049,0,0,0,246.43365,230.66079Zm-3.34765,1.26865h-1.29376v-2.5546h1.64829c.84947,0,1.76071.17212,1.76071,1.23242C245.20453,231.86767,244.17224,231.92944,243.086,231.92944Z" fill="#fff"/></g></svg>