<svg id="Layer_1" data-name="Layer 1" xmlns="http://www.w3.org/2000/svg" viewBox="0 0 300 300"><path d="M61.5834,83.10771h55.84142l12.85325,34.786.01419.03038,1.03049.41742,3.28644,8.75906h.0283c11.58608.26475,14.594,3.57887,15.35993,5.54239.58486,1.49.30616,3.21683-.80775,5.16647-1.72675-1.7825-5.58411-3.3004-12.86721-3.57887,2.38124,6.41976,4.846,13.15964,4.846,13.15964-5.73729,5.96011-13.10389,14.87243-9.41362,22.09971,2.632,5.15245,9.915,7.77052,21.65426,7.7844,37.83565,0,106.3076-26.30542,114.71855-30.03739a4.57613,4.57613,0,0,0,2.75724-3.91317,5.276,5.276,0,0,1,4.10806,5.417,5.34446,5.34446,0,0,1-3.23069,4.62323c-8.36924,3.71812-50.43834,19.55136-85.12687,26.918L171.9579,216.89229H128.85832c-8.81489,0-13.14568-.54261-19.11975-13.99507-3.13325-7.04641-13.60526-33.76937-24.28613-60.29759-16.34865,5.0829-37.766,12.58867-50.48013,19.259a5.09541,5.09541,0,0,1-7.61733-4.52624,5.24368,5.24368,0,0,1,.2784-1.55969,4.31353,4.31353,0,0,0,2.40915.766h.06969a4.33207,4.33207,0,0,0,2.11664-.55679c14.63576-7.68695,40.35621-16.08411,50.35477-19.23124l-3.175-7.79826.30616-.59921Z" fill="#006ea9"/><line x1="61.5834" y1="83.10771" x2="79.71446" y2="128.35184" fill="#006ea9"/><path d="M158.54693,129.52156c2.2699,6.11338.11125,12.17094-6.545,18.54892-1.39255,1.28121-13.47991,12.58866-11.86456,17.46261.75193,2.242,4.19156,3.34219,10.52775,3.34219,9.45541,0,25.03815-2.465,43.28061-6.85136l31.63884-78.916H169.7432l-15.31814,41.41468a10.65335,10.65335,0,0,1,4.12195,4.99916Z" fill="#006ea9"/><path d="M83.32123,137.33371c-16.37646,5.08274-37.93319,12.61657-50.70294,19.3148a4.95342,4.95342,0,0,1-2.59018.668,5.09268,5.09268,0,0,1-2.061-9.72016c14.73319-6.86524,35.55188-14.204,51.74731-19.23123q1.77552,4.42833,3.6067,8.96815" fill="#fdcd01"/><path d="M266.60918,137.76468a5.28856,5.28856,0,0,0-2.71545.61231c-49.35212,21.16683-119.77355,36.31792-123.00432,26.91817-1.55968-4.52578,11.64174-16.64091,11.64174-16.64091,6.23867-5.97412,9.34407-12.39375,6.75392-19.41225-2.85471-7.72873-16.58532-11.46072-28.993-11.33535.64061,1.75458,1.97748,5.37524,3.67632,9.95684.20887.01018.44563.01018.64061.01018,9.83141.22235,13.73055,2.65971,14.66357,5.04112,1.08623,2.813-1.72675,6.12725-3.06363,7.58948-.97473,1.0584-5.82087,6.559-5.82087,6.559-4.91567,5.09662-13.4799,14.64963-9.33012,22.782,12.895,25.28879,122.72586-15.37373,137.38943-21.90484a5.37142,5.37142,0,0,0,3.23069-4.60936,5.30727,5.30727,0,0,0-5.03241-5.56858l-.03652-.00172" fill="#fdcd01"/></svg>