<svg id="Layer_1" data-name="Layer 1" xmlns="http://www.w3.org/2000/svg" viewBox="0 0 300 300"><defs><style>.cls-1{fill:#39b29b;}.cls-2{fill:#479cd9;}.cls-3{fill:#7f9cd1;}.cls-4{fill:#7fbe30;}</style></defs><path class="cls-1" d="M250.71,74q-6.57-3.37-13.77-6.28,2.91,7.81,5.2,16.08A190.13,190.13,0,0,1,262,91.89,132.36,132.36,0,0,0,250.71,74Z"/><path class="cls-1" d="M57.86,216.22A190.13,190.13,0,0,1,38,208.11,127.61,127.61,0,0,0,49.29,226q6.57,3.38,13.77,6.28C61.17,227.09,59.39,221.68,57.86,216.22Z"/><path class="cls-1" d="M169,107c-6.33-.15-12.7-.2-19-.2s-12.7,0-19,.2c-.15,6.84-.31,13.83-.41,20.87,6.43,0,13-.1,19.44-.1s13,0,19.44.1C169.34,120.87,169.18,113.88,169,107Z"/><path class="cls-1" d="M108,72.14c.61-5.92,1.27-11.73,2-17.34A236.65,236.65,0,0,0,85.82,60c-1.84,5.46-3.58,11.22-5,17.09C89.49,75.1,98.62,73.42,108,72.14Z"/><path class="cls-1" d="M189.59,74.49c-6.27-.82-12.7-1.38-19.18-1.79.51,10.26.87,20.92,1.17,31.74,6.84.15,13.68.46,20.36.76C191.38,94.8,190.61,84.44,189.59,74.49Z"/><path class="cls-1" d="M169,193c.15-6.84.31-13.83.41-20.87-6.48,0-13,.1-19.44.1s-12.91-.05-19.44-.1c.1,7,.21,14,.41,20.87,6.33.15,12.7.2,19,.2S162.7,193.11,169,193Z"/><path class="cls-1" d="M69.44,150c0-5.82.15-11.79.46-17.65-6,.3-11.94.66-17.71,1-.35,5.56-.56,11.12-.56,16.63s.21,11.07.56,16.63c5.72.36,11.69.72,17.71,1C69.59,161.79,69.44,155.82,69.44,150Z"/><path class="cls-1" d="M183.06,271.79c1.43-7.4,2.71-15.26,3.83-23.47-5.82.86-11.79,1.48-17.76,1.94-.56,8.67-1.22,17-1.94,24.74A121.89,121.89,0,0,0,183.06,271.79Z"/><path class="cls-1" d="M214.18,240c1.84-5.46,3.58-11.23,5-17.09-8.77,2.09-17.9,3.72-27.24,5-.61,5.92-1.28,11.73-2,17.34A237.64,237.64,0,0,0,214.18,240Z"/><path class="cls-1" d="M230.1,167.65c.31-5.86.46-11.83.46-17.65s-.15-11.79-.46-17.65c6,.3,11.94.66,17.71,1,.35,5.56.56,11.12.56,16.63s-.21,11.07-.56,16.63C242.09,167,236.12,167.35,230.1,167.65Z"/><path class="cls-2" d="M226,49.29A127.61,127.61,0,0,0,208.11,38a179.87,179.87,0,0,1,8.11,19.9c5.46,1.53,10.87,3.26,16.08,5.2C230.36,58.32,228.21,53.67,226,49.29Z"/><path class="cls-2" d="M83.78,242.14c-5.46-1.53-10.87-3.26-16.08-5.2q2.91,7.19,6.28,13.77A127.61,127.61,0,0,0,91.89,262,194.67,194.67,0,0,1,83.78,242.14Z"/><path class="cls-2" d="M166.63,52.19c-5.56-.35-11.12-.56-16.63-.56s-11.07.21-16.63.56c-.36,5.72-.72,11.69-1,17.71,5.86-.31,11.78-.46,17.65-.46s11.79.15,17.65.46C167.35,63.88,167,57.91,166.63,52.19Z"/><path class="cls-2" d="M104.44,128.42c.15-6.84.46-13.68.76-20.36-10.46.56-20.76,1.38-30.71,2.35-.82,6.27-1.38,12.7-1.79,19.18C83,129.08,93.62,128.67,104.44,128.42Z"/><path class="cls-2" d="M49.74,130.87c.46-6,1.08-11.94,1.94-17.76-8.21,1.12-16.07,2.45-23.47,3.83A120.23,120.23,0,0,0,25,132.81C32.76,132.09,41.07,131.48,49.74,130.87Z"/><path class="cls-2" d="M183.06,28.21A121.89,121.89,0,0,0,167.19,25c.72,7.76,1.38,16.07,1.94,24.74,6,.46,11.94,1.08,17.76,1.94C185.77,43.47,184.44,35.61,183.06,28.21Z"/><path class="cls-2" d="M240,85.82c-5.46-1.84-11.23-3.58-17.09-5,2.09,8.77,3.72,17.9,5,27.24,5.92.61,11.73,1.28,17.34,2A237.64,237.64,0,0,0,240,85.82Z"/><path class="cls-2" d="M130.87,250.26c-6-.46-11.94-1.08-17.76-1.94,1.12,8.21,2.45,16.07,3.83,23.47A121.89,121.89,0,0,0,132.81,275C132.09,267.24,131.48,258.93,130.87,250.26Z"/><path class="cls-2" d="M104.44,171.58c-10.92-.3-21.58-.66-31.74-1.17.41,6.48,1,12.91,1.79,19.18,10,1,20.25,1.79,30.71,2.35C104.9,185.31,104.64,178.47,104.44,171.58Z"/><path class="cls-2" d="M189.59,225.51c1-9.95,1.79-20.26,2.35-30.71-6.68.35-13.52.61-20.36.76-.3,10.87-.66,21.53-1.17,31.74C176.89,226.89,183.32,226.28,189.59,225.51Z"/><path class="cls-2" d="M240,214.18a226.59,226.59,0,0,0,5.2-24.18c-5.61.71-11.43,1.43-17.34,2a270.34,270.34,0,0,1-5,27.25C228.72,217.75,234.49,216,240,214.18Z"/><path class="cls-2" d="M248.32,186.89c.86-5.87,1.48-11.79,1.94-17.76q13-.84,24.74-1.94a120.23,120.23,0,0,1-3.21,15.87C264.44,184.44,256.53,185.77,248.32,186.89Z"/><path class="cls-3" d="M57.86,83.78c1.53-5.46,3.26-10.87,5.2-16.08Q55.88,70.61,49.29,74A124.79,124.79,0,0,0,38,91.89,194.67,194.67,0,0,1,57.86,83.78ZM250.71,226A124.79,124.79,0,0,0,262,208.11a179.87,179.87,0,0,1-19.9,8.11c-1.53,5.46-3.26,10.87-5.2,16.08C241.68,230.36,246.33,228.27,250.71,226ZM130.87,49.74c.56-8.67,1.22-17,1.94-24.74a120.23,120.23,0,0,0-15.87,3.21c-1.43,7.35-2.71,15.26-3.83,23.47C118.93,50.82,124.9,50.15,130.87,49.74Zm94.64,60.67c-9.95-1-20.25-1.79-30.71-2.35.35,6.68.61,13.52.76,20.36,10.87.3,21.53.66,31.74,1.17C226.89,123.11,226.28,116.68,225.51,110.41Zm-58.88,137.4c.36-5.72.72-11.69,1-17.71-5.86.31-11.83.46-17.65.46s-11.73-.15-17.65-.46c.3,6,.66,11.94,1,17.71,5.56.35,11.12.56,16.63.56S161.07,248.16,166.63,247.81ZM127.81,150c0-6.43,0-13,.1-19.44-7,.1-14,.21-20.87.41-.15,6.33-.2,12.7-.2,19s0,12.7.2,19c6.89.15,13.88.31,20.87.41C127.86,163,127.81,156.43,127.81,150ZM77.14,219.23c-5.92-1.53-11.63-3.21-17.09-5A226.59,226.59,0,0,1,54.85,190c5.61.71,11.43,1.43,17.34,2C73.42,201.33,75.1,210.51,77.14,219.23Z"/><path class="cls-4" d="M83.78,57.86A190.13,190.13,0,0,1,91.89,38,127.61,127.61,0,0,0,74,49.29q-3.37,6.57-6.28,13.77C72.91,61.17,78.32,59.39,83.78,57.86Z"/><path class="cls-4" d="M226,250.71q3.38-6.57,6.28-13.77-7.81,2.91-16.08,5.2a190.13,190.13,0,0,1-8.11,19.9A132.36,132.36,0,0,0,226,250.71Z"/><path class="cls-4" d="M128.42,104.44c.3-10.87.66-21.53,1.17-31.74-6.48.41-12.91,1-19.18,1.79-1,10-1.79,20.25-2.35,30.71C114.69,104.9,121.53,104.64,128.42,104.44Z"/><path class="cls-4" d="M72.14,108a270.34,270.34,0,0,1,5-27.25c-5.86,1.48-11.63,3.22-17.09,5.06A226.59,226.59,0,0,0,54.85,110C60.46,109.29,66.28,108.57,72.14,108Z"/><path class="cls-4" d="M214.18,60.05A226.59,226.59,0,0,0,190,54.85c.77,5.61,1.43,11.43,2,17.34a270.34,270.34,0,0,1,27.25,5C217.76,71.28,216,65.51,214.18,60.05Z"/><path class="cls-4" d="M271.79,116.94c-7.4-1.43-15.26-2.71-23.47-3.83.86,5.82,1.48,11.79,1.94,17.76q13,.84,24.74,1.94A121.89,121.89,0,0,0,271.79,116.94Z"/><path class="cls-4" d="M128.42,195.56c-6.84-.15-13.68-.46-20.36-.76.56,10.45,1.38,20.76,2.35,30.71,6.27.82,12.7,1.43,19.18,1.79C129.08,217,128.67,206.38,128.42,195.56Z"/><path class="cls-4" d="M108,227.86a270.34,270.34,0,0,1-27.25-5c1.48,5.92,3.22,11.63,5.06,17.09a226.59,226.59,0,0,0,24.18,5.2C109.29,239.59,108.57,233.72,108,227.86Z"/><path class="cls-4" d="M49.74,169.13q-13-.84-24.74-1.94a120.23,120.23,0,0,0,3.21,15.87c7.35,1.43,15.26,2.71,23.47,3.83C50.82,181.07,50.15,175.1,49.74,169.13Z"/><path class="cls-4" d="M193,169c.15-6.33.2-12.7.2-19s0-12.7-.2-19c-6.89-.15-13.88-.31-20.87-.41,0,6.48.1,13,.1,19.44s-.05,13-.1,19.44C179.08,169.34,186.12,169.18,193,169Z"/><path class="cls-4" d="M194.74,192c.36-6.68.62-13.52.77-20.36,10.92-.3,21.58-.66,31.73-1.17-.4,6.48-1,12.91-1.78,19.18C215.56,190.61,205.2,191.38,194.74,192Z"/></svg>