<svg id="Layer_1" data-name="Layer 1" xmlns="http://www.w3.org/2000/svg" viewBox="0 0 300 300"><defs><style>.cls-1{fill:#fdbb30;}</style></defs><title>WMT</title><path class="cls-1" d="M150.73,111.87c5.45,0,10-2.82,10.59-6.5l5.39-61.07c0-6-7.24-10.85-16-10.85s-15.94,5-15.94,10.85l5.56,61.07c.58,3.61,5.1,6.5,10.56,6.5"/><path class="cls-1" d="M117.75,131c2.71-4.73,2.5-10.05-.36-12.4L67.21,83.35c-5.21-3-13.06.61-17.5,8.31S46.09,108,51.26,111l55.54,25.89c3.61,1.26,8.24-1.2,10.84-5.93"/><path class="cls-1" d="M183.77,130.93c2.71,4.73,7.45,7.23,10.85,5.93L250.19,111c5.24-3,6-11.61,1.52-19.31s-12.26-11.31-17.47-8.31l-50.11,35.21c-2.89,2.35-3.07,7.67-.36,12.4"/><path class="cls-1" d="M150.73,188.13c5.45,0,10,2.85,10.59,6.5l5.39,61.07c0,6-7.24,10.85-16,10.85s-15.94-5-15.94-10.85l5.56-61.07c.58-3.61,5.1-6.5,10.56-6.5"/><path class="cls-1" d="M183.77,169.11c2.71-4.74,7.45-7.23,10.85-5.93l55.57,25.89c5.24,3,6,11.6,1.52,19.3s-12.26,11.32-17.47,8.32l-50.11-35.22c-2.89-2.35-3.07-7.66-.36-12.4"/><path class="cls-1" d="M117.75,169.07c2.71,4.74,2.5,10.05-.36,12.4L67.21,216.65c-5.21,3-13.06-.61-17.5-8.28s-3.62-16.3,1.55-19.34l55.54-25.85c3.61-1.3,8.24,1.16,10.84,5.89"/></svg>